M48
; DRILL file {KiCad 6.0.9-8da3e8f707~116~ubuntu22.04.1} date Di 22 Nov 2022 22:51:51 CET
; FORMAT={-:-/ absolute / inch / decimal}
; #@! TF.CreationDate,2022-11-22T22:51:51+01:00
; #@! TF.GenerationSoftware,Kicad,Pcbnew,6.0.9-8da3e8f707~116~ubuntu22.04.1
; #@! TF.FileFunction,Plated,1,2,PTH
FMAT,2
INCH
; #@! TA.AperFunction,Plated,PTH,ViaDrill
T1C0.0118
; #@! TA.AperFunction,Plated,PTH,ViaDrill
T2C0.0157
; #@! TA.AperFunction,Plated,PTH,ViaDrill
T3C0.0197
; #@! TA.AperFunction,Plated,PTH,ComponentDrill
T4C0.0354
; #@! TA.AperFunction,Plated,PTH,ComponentDrill
T5C0.0394
; #@! TA.AperFunction,Plated,PTH,ComponentDrill
T6C0.0480
; #@! TA.AperFunction,Plated,PTH,ComponentDrill
T7C0.0559
; #@! TA.AperFunction,Plated,PTH,ComponentDrill
T8C0.0563
; #@! TA.AperFunction,Plated,PTH,ComponentDrill
T9C0.0709
; #@! TA.AperFunction,Plated,PTH,ComponentDrill
T10C0.0827
; #@! TA.AperFunction,Plated,PTH,ViaDrill
T11C0.1260
%
G90
G05
T1
X4.3386Y-2.748
X4.3898Y-2.7461
X4.439Y-2.748
X4.4925Y-2.748
X5.5118Y-2.8386
X5.5512Y-2.8071
X5.5787Y-2.7756
X5.6339Y-2.7362
X5.695Y-2.5289
X5.8858Y-5.9882
X5.9134Y-4.6417
X6.5157Y-2.9724
X6.5197Y-2.7559
X6.6969Y-5.8465
X7.1654Y-5.378
X7.2795Y-5.9803
X7.3031Y-6.1457
X7.4764Y-5.6102
X7.6906Y-6.222
X7.7402Y-5.9764
X7.7402Y-6.0906
X8.0748Y-5.5079
X8.0945Y-5.9488
X8.0945Y-6.1654
X8.2205Y-5.1063
X8.2831Y-4.7996
X8.4409Y-5.5906
X8.7402Y-4.2126
X8.7402Y-4.2913
X8.7402Y-4.3701
X8.7402Y-4.4488
X8.7402Y-4.5276
X8.7402Y-4.6063
X8.7402Y-4.685
X8.7402Y-4.7638
X8.7402Y-4.8425
X8.7402Y-4.9213
X8.7402Y-5.0
X8.7402Y-5.0787
X8.7795Y-4.1732
X8.7795Y-4.252
X8.7795Y-4.3307
X8.7795Y-4.4094
X8.7795Y-4.4882
X8.7795Y-4.5669
X8.7795Y-4.6457
X8.7795Y-4.7244
X8.7795Y-4.8031
X8.7795Y-4.8819
X8.7795Y-4.9606
X8.7795Y-5.0394
X8.8189Y-4.2126
X8.8189Y-4.2913
X8.8189Y-4.3701
X8.8189Y-4.4488
X8.8189Y-4.5276
X8.8189Y-4.6063
X8.8189Y-4.685
X8.8189Y-4.7638
X8.8189Y-4.8425
X8.8189Y-4.9213
X8.8189Y-5.0
X8.8189Y-5.0787
X8.8583Y-4.1732
X8.8583Y-4.252
X8.8583Y-4.3307
X8.8583Y-4.4094
X8.8583Y-4.4882
X8.8583Y-4.5669
X8.8583Y-4.6457
X8.8583Y-4.7244
X8.8583Y-4.8031
X8.8583Y-4.8819
X8.8583Y-4.9606
X8.8583Y-5.0394
X8.8583Y-5.874
X8.8976Y-4.2126
X8.8976Y-4.2913
X8.8976Y-4.3701
X8.8976Y-4.4488
X8.8976Y-4.5276
X8.8976Y-4.6063
X8.8976Y-4.685
X8.8976Y-4.7638
X8.8976Y-4.8425
X8.8976Y-4.9213
X8.8976Y-5.0
X8.8976Y-5.0787
X8.937Y-4.1732
X8.937Y-4.252
X8.937Y-4.3307
X8.937Y-4.4094
X8.937Y-4.4882
X8.937Y-4.5669
X8.937Y-4.6457
X8.937Y-4.7244
X8.937Y-4.8031
X8.937Y-4.8819
X8.937Y-4.9606
X8.937Y-5.0394
X8.9764Y-4.2126
X8.9764Y-4.2913
X8.9764Y-4.3701
X8.9764Y-4.4488
X8.9764Y-4.5276
X8.9764Y-4.6063
X8.9764Y-4.685
X8.9764Y-4.7638
X8.9764Y-4.8425
X8.9764Y-4.9213
X8.9764Y-5.0
X8.9764Y-5.0787
X9.0157Y-4.1732
X9.0157Y-4.252
X9.0157Y-4.3307
X9.0157Y-4.4094
X9.0157Y-4.4882
X9.0157Y-4.5669
X9.0157Y-4.6457
X9.0157Y-4.7244
X9.0157Y-4.8031
X9.0157Y-4.8819
X9.0157Y-4.9606
X9.0157Y-5.0394
X9.0505Y-4.2114
X9.0512Y-4.374
X9.0512Y-4.4528
X9.0512Y-4.5276
X9.0551Y-4.2913
X9.0551Y-4.6063
X9.0551Y-4.685
X9.0551Y-4.7638
X9.0551Y-4.8425
X9.0551Y-4.9213
X9.0551Y-5.0
X9.0551Y-5.0787
X9.0945Y-4.1732
X9.0945Y-4.3307
X9.0945Y-4.4094
X9.0945Y-4.4882
X9.0945Y-4.5669
X9.0945Y-4.6457
X9.0945Y-4.7244
X9.0945Y-4.8031
X9.0945Y-4.8819
X9.0945Y-4.9606
X9.0945Y-5.0394
X9.0957Y-4.2513
X9.1063Y-5.8583
X9.1339Y-4.2126
X9.1339Y-4.2913
X9.1339Y-4.3701
X9.1339Y-4.4488
X9.1339Y-4.5276
X9.1339Y-4.6063
X9.1339Y-4.685
X9.1339Y-4.7638
X9.1339Y-4.8425
X9.1339Y-4.9213
X9.1339Y-5.0
X9.1339Y-5.0787
X9.1732Y-4.1729
X9.1732Y-4.252
X9.1732Y-4.3307
X9.1732Y-4.4094
X9.1732Y-4.4882
X9.1732Y-4.5669
X9.1732Y-4.6457
X9.1732Y-4.7244
X9.1732Y-4.8031
X9.1732Y-4.8819
X9.1732Y-4.9606
X9.1732Y-5.0394
X9.2717Y-4.5276
X9.2913Y-4.7244
X9.4882Y-4.7244
X9.4882Y-4.8031
X9.4882Y-4.8819
X9.4882Y-4.9606
X9.4882Y-5.0394
X9.4882Y-5.1181
X9.4882Y-5.1969
X9.4882Y-5.2756
X9.5276Y-4.7638
X9.5276Y-4.8425
X9.5276Y-4.9213
X9.5276Y-5.0
X9.5276Y-5.0787
X9.5276Y-5.1575
X9.5276Y-5.2362
X9.5669Y-4.7244
X9.5669Y-4.8031
X9.5669Y-4.8819
X9.5669Y-4.9606
X9.5669Y-5.0394
X9.5669Y-5.1181
X9.5669Y-5.1969
X9.5669Y-5.2756
X9.6063Y-4.7638
X9.6063Y-4.8425
X9.6063Y-4.9213
X9.6063Y-5.0
X9.6063Y-5.0787
X9.6063Y-5.1575
X9.6063Y-5.2362
X9.6457Y-4.7244
X9.6457Y-4.8031
X9.6457Y-4.8819
X9.6457Y-4.9606
X9.6457Y-5.0394
X9.6457Y-5.1181
X9.6457Y-5.1969
X9.6457Y-5.2756
X9.685Y-4.7638
X9.685Y-4.8425
X9.685Y-4.9213
X9.685Y-5.0
X9.685Y-5.0787
X9.685Y-5.1575
X9.685Y-5.2362
X9.7244Y-4.7244
X9.7244Y-4.8031
X9.7244Y-4.8819
X9.7244Y-4.9606
X9.7244Y-5.0394
X9.7244Y-5.1181
X9.7244Y-5.1969
X9.7244Y-5.2756
X9.7638Y-4.7638
X9.7638Y-4.8425
X9.7638Y-4.9213
X9.7638Y-5.0
X9.7638Y-5.0787
X9.7638Y-5.1575
X9.7638Y-5.2362
X9.8031Y-4.7244
X9.8031Y-4.8031
X9.8031Y-4.8819
X9.8031Y-4.9606
X9.8031Y-5.0394
X9.8031Y-5.1181
X9.8031Y-5.1969
X9.8031Y-5.2756
X9.8425Y-4.7638
X9.8425Y-4.8425
X9.8425Y-4.9213
X9.8425Y-5.0
X9.8425Y-5.0787
X9.8425Y-5.1575
X9.8425Y-5.2362
T2
X2.1165Y-3.537
X2.1811Y-3.626
X2.185Y-3.1457
X2.248Y-3.437
X3.7004Y-5.8673
X3.9606Y-4.8465
X4.0394Y-2.6142
X4.2126Y-2.7677
X4.2677Y-5.1181
X4.2677Y-5.315
X4.3391Y-3.542
X4.7638Y-5.998
X4.8275Y-3.9539
X4.8913Y-6.2575
X4.9902Y-4.1161
X5.065Y-6.026
X5.1252Y-4.8933
X5.1283Y-5.5291
X5.1386Y-5.6028
X5.1634Y-5.2512
X5.1654Y-5.6772
X5.2559Y-5.6417
X5.3937Y-6.2047
X5.4331Y-5.2835
X5.4331Y-5.3701
X5.4409Y-6.0866
X5.4657Y-5.8358
X5.4843Y-6.0358
X5.6552Y-5.9861
X5.7047Y-5.6929
X5.7776Y-5.5866
X5.9724Y-5.2953
X6.2874Y-5.9803
X6.7205Y-5.3819
X6.7205Y-5.626
X6.7283Y-3.7756
X6.7323Y-6.0591
X6.7362Y-3.3622
X6.7559Y-6.2441
X6.9094Y-3.9803
X6.9193Y-6.1909
X6.9409Y-4.7323
X6.9685Y-4.7756
X7.0823Y-4.8468
X7.126Y-4.5354
X7.1697Y-4.8461
X7.2362Y-5.1024
X7.3028Y-4.6866
X7.315Y-4.5866
X7.3295Y-5.8555
X7.5008Y-6.0057
X7.5236Y-4.0354
X7.5236Y-4.2087
X7.5489Y-5.7752
X7.6654Y-3.5512
X7.7598Y-4.2362
X7.8622Y-4.685
X7.8661Y-4.878
X7.8979Y-5.8068
X7.9567Y-2.6102
X7.9606Y-5.7756
X8.0157Y-4.9528
X8.0378Y-5.8677
X8.063Y-4.6102
X8.0906Y-4.9173
X8.1575Y-4.4685
X8.2402Y-4.752
X8.3153Y-4.5004
X8.437Y-3.7244
X8.6575Y-3.3386
X9.1575Y-3.9528
X9.1929Y-5.5315
X9.4449Y-5.5315
X9.5118Y-5.9646
X9.563Y-5.9094
X9.8031Y-5.4331
X9.815Y-4.0157
X9.8189Y-3.4646
T3
X8.3553Y-5.7785
X8.4827Y-6.0937
X8.4833Y-6.0246
X8.7992Y-5.935
X9.0907Y-6.1159
T4
X4.2126Y-2.9222
X4.2126Y-3.0222
X5.0Y-4.9689
X5.0Y-5.0689
T5
X4.1807Y-6.2165
X4.2185Y-2.622
X4.3185Y-2.622
X4.4185Y-2.622
X4.4685Y-4.0157
X4.4685Y-4.8425
X4.4685Y-5.6693
X4.5185Y-2.622
X4.5669Y-4.0157
X4.5669Y-4.8425
X4.5669Y-5.6693
X4.6185Y-2.622
X4.6654Y-4.0157
X4.6654Y-4.8425
X4.6654Y-5.6693
X4.7185Y-2.622
X4.8185Y-2.622
X4.9185Y-2.622
X5.0185Y-2.622
X5.1185Y-2.622
X5.2185Y-2.622
X5.3185Y-2.622
X5.3346Y-4.0157
X5.3346Y-4.8425
X5.3346Y-5.6693
X5.4185Y-2.622
X5.4331Y-4.0157
X5.4331Y-4.8425
X5.4331Y-5.6693
X5.5185Y-2.622
X5.5315Y-4.0157
X5.5315Y-4.8425
X5.5315Y-5.6693
X5.6185Y-2.622
X5.7185Y-2.622
X5.8185Y-2.622
X5.9185Y-2.622
X6.0185Y-2.622
X6.1185Y-2.622
X6.2008Y-4.0157
X6.2008Y-4.8425
X6.2008Y-5.6693
X6.2185Y-2.622
X6.2992Y-4.0157
X6.2992Y-4.8425
X6.2992Y-5.6693
X6.3185Y-2.622
X6.3976Y-4.0157
X6.3976Y-4.8425
X6.3976Y-5.6693
X6.4185Y-2.622
X6.5185Y-2.622
X6.6185Y-2.622
X6.7185Y-2.622
X6.8185Y-2.622
X6.9185Y-2.622
X7.0185Y-2.622
X7.0669Y-4.0157
X7.0669Y-5.6693
X7.1185Y-2.622
X7.1654Y-4.0157
X7.1654Y-5.6693
X7.2185Y-2.622
X7.2638Y-4.0157
X7.2638Y-5.6693
X7.3185Y-2.622
X7.4185Y-2.622
X7.5185Y-2.622
X7.6185Y-2.622
X7.7185Y-2.622
X7.9331Y-4.0157
X7.9331Y-5.6693
X8.0315Y-4.0157
X8.0315Y-5.6693
X8.1299Y-4.0157
X8.1299Y-5.6693
X8.7598Y-4.0157
X8.7598Y-5.6693
X8.8583Y-4.0157
X8.8583Y-5.6693
X8.9567Y-4.0157
X8.9567Y-5.6693
T6
X2.4606Y-3.2283
X2.4606Y-3.8189
X2.4606Y-4.4094
X2.4606Y-5.0
X2.4606Y-5.5906
X2.4606Y-6.1811
X2.9134Y-3.2283
X2.9134Y-3.8189
X2.9134Y-4.4094
X2.9134Y-5.0
X2.9134Y-5.5906
X2.9134Y-6.1811
X3.3661Y-3.2283
X3.3661Y-3.8189
X3.3661Y-4.4094
X3.3661Y-5.0
X3.3661Y-5.5906
X3.3661Y-6.1811
X3.8189Y-3.2283
X3.8189Y-3.8189
X3.8189Y-4.4094
X3.8189Y-5.0
X3.8189Y-5.5906
X3.8189Y-6.1811
X8.7992Y-3.0709
X9.3504Y-3.0709
T7
X2.4606Y-3.1063
X2.4606Y-3.6969
X2.4606Y-4.2874
X2.4606Y-4.878
X2.4606Y-5.4685
X2.4606Y-6.0591
X2.9134Y-3.1063
X2.9134Y-3.6969
X2.9134Y-4.2874
X2.9134Y-4.878
X2.9134Y-5.4685
X2.9134Y-6.0591
X3.3661Y-3.1063
X3.3661Y-3.6969
X3.3661Y-4.2874
X3.3661Y-4.878
X3.3661Y-5.4685
X3.3661Y-6.0591
X3.8189Y-3.1063
X3.8189Y-3.6969
X3.8189Y-4.2874
X3.8189Y-4.878
X3.8189Y-5.4685
X3.8189Y-6.0591
X8.7992Y-2.9488
X9.3504Y-2.9488
T8
X2.4606Y-2.7795
X2.4606Y-3.3701
X2.4606Y-3.9606
X2.4606Y-4.5512
X2.4606Y-5.1417
X2.4606Y-5.7323
X2.9134Y-2.7795
X2.9134Y-3.3701
X2.9134Y-3.9606
X2.9134Y-4.5512
X2.9134Y-5.1417
X2.9134Y-5.7323
X3.3661Y-2.7795
X3.3661Y-3.3701
X3.3661Y-3.9606
X3.3661Y-4.5512
X3.3661Y-5.1417
X3.3661Y-5.7323
X3.8189Y-2.7795
X3.8189Y-3.3701
X3.8189Y-3.9606
X3.8189Y-4.5512
X3.8189Y-5.1417
X3.8189Y-5.7323
X8.7992Y-2.622
X9.3504Y-2.622
T9
X4.378Y-3.7205
X4.378Y-4.5472
X4.378Y-5.374
X4.7559Y-3.7205
X4.7559Y-4.5472
X4.7559Y-5.374
X5.2441Y-3.7205
X5.2441Y-4.5472
X5.2441Y-5.374
X5.622Y-3.7205
X5.622Y-4.5472
X5.622Y-5.374
X6.1102Y-3.7205
X6.1102Y-4.5472
X6.1102Y-5.374
X6.4882Y-3.7205
X6.4882Y-4.5472
X6.4882Y-5.374
X6.9764Y-3.7205
X6.9764Y-5.374
X7.3543Y-3.7205
X7.3543Y-5.374
X7.8425Y-3.7205
X7.8425Y-5.374
X8.2205Y-3.7205
X8.2205Y-5.374
X8.6693Y-3.7205
X8.6693Y-5.374
X9.0472Y-3.7205
X9.0472Y-5.374
T10
X4.9606Y-2.8071
X4.9606Y-2.9921
X4.9606Y-3.1772
X5.3543Y-2.8071
X5.3543Y-2.9921
X5.3543Y-3.1772
X5.9055Y-2.8071
X5.9055Y-2.9921
X5.9055Y-3.1772
X6.2992Y-2.8071
X6.2992Y-2.9921
X6.2992Y-3.1772
X6.8504Y-2.8071
X6.8504Y-2.9921
X6.8504Y-3.1772
X7.2441Y-2.8071
X7.2441Y-2.9921
X7.2441Y-3.1772
X7.6378Y-2.8071
X7.6378Y-2.9921
X7.6378Y-3.1772
T11
X2.2244Y-2.6496
X2.2244Y-6.1929
X9.7047Y-2.6496
X9.7047Y-6.1929
T5
G00X8.0219Y-2.8543
M15
G01X8.0219Y-2.9331
M16
G05
G00X8.2464Y-2.7756
M15
G01X8.1676Y-2.7756
M16
G05
G00X8.2464Y-3.0118
M15
G01X8.1676Y-3.0118
M16
G05
T0
M30
