%TF.GenerationSoftware,KiCad,Pcbnew,6.0.6-3a73a75311~116~ubuntu21.10.1*%
%TF.CreationDate,2022-09-23T00:08:08+02:00*%
%TF.ProjectId,frontpanel,66726f6e-7470-4616-9e65-6c2e6b696361,v0.0.1*%
%TF.SameCoordinates,Original*%
%TF.FileFunction,Legend,Top*%
%TF.FilePolarity,Positive*%
%FSLAX46Y46*%
G04 Gerber Fmt 4.6, Leading zero omitted, Abs format (unit mm)*
G04 Created by KiCad (PCBNEW 6.0.6-3a73a75311~116~ubuntu21.10.1) date 2022-09-23 00:08:08*
%MOMM*%
%LPD*%
G01*
G04 APERTURE LIST*
%ADD10C,0.150000*%
%ADD11C,0.250000*%
G04 APERTURE END LIST*
D10*
X176000000Y-43700000D02*
X179000000Y-43700000D01*
X186000000Y-43700000D02*
X189000000Y-43700000D01*
X70900000Y-123500000D02*
X74100000Y-123500000D01*
X74100000Y-123500000D02*
X74100000Y-125400000D01*
X74100000Y-125400000D02*
X70900000Y-125400000D01*
X70900000Y-125400000D02*
X70900000Y-123500000D01*
X77900000Y-35100000D02*
X81400000Y-35100000D01*
X81400000Y-35100000D02*
X81400000Y-37000000D01*
X81400000Y-37000000D02*
X77900000Y-37000000D01*
X77900000Y-37000000D02*
X77900000Y-35100000D01*
X93300000Y-123500000D02*
X97600000Y-123500000D01*
X97600000Y-123500000D02*
X97600000Y-125400000D01*
X97600000Y-125400000D02*
X93300000Y-125400000D01*
X93300000Y-125400000D02*
X93300000Y-123500000D01*
X59800000Y-123500000D02*
X62200000Y-123500000D01*
X62200000Y-123500000D02*
X62200000Y-125400000D01*
X62200000Y-125400000D02*
X59800000Y-125400000D01*
X59800000Y-125400000D02*
X59800000Y-123500000D01*
D11*
X213500000Y-54000000D02*
X213500000Y-70250000D01*
D10*
X93980000Y-93500000D02*
X97080000Y-93500000D01*
X97080000Y-93500000D02*
X97080000Y-95390000D01*
X97080000Y-95390000D02*
X93980000Y-95390000D01*
X93980000Y-95390000D02*
X93980000Y-93500000D01*
D11*
X170000000Y-54000000D02*
X170000000Y-70250000D01*
D10*
X59500000Y-108500000D02*
X62500000Y-108500000D01*
X62500000Y-108500000D02*
X62500000Y-110400000D01*
X62500000Y-110400000D02*
X59500000Y-110400000D01*
X59500000Y-110400000D02*
X59500000Y-108500000D01*
X81400000Y-108500000D02*
X86600000Y-108500000D01*
X86600000Y-108500000D02*
X86600000Y-110400000D01*
X86600000Y-110400000D02*
X81400000Y-110400000D01*
X81400000Y-110400000D02*
X81400000Y-108500000D01*
X155000000Y-43700000D02*
X152000000Y-43700000D01*
X69900000Y-108500000D02*
X75100000Y-108500000D01*
X75100000Y-108500000D02*
X75100000Y-110400000D01*
X75100000Y-110400000D02*
X69900000Y-110400000D01*
X69900000Y-110400000D02*
X69900000Y-108500000D01*
D11*
X147500000Y-96000000D02*
X147500000Y-112250000D01*
X125500000Y-91250000D02*
X125500000Y-54000000D01*
D10*
X80690476Y-94952380D02*
X80690476Y-93952380D01*
X81023809Y-94666666D01*
X81357142Y-93952380D01*
X81357142Y-94952380D01*
X81833333Y-94952380D02*
X81833333Y-93952380D01*
X82214285Y-93952380D02*
X82880952Y-94952380D01*
X82880952Y-93952380D02*
X82214285Y-94952380D01*
X83214285Y-94047619D02*
X83261904Y-94000000D01*
X83357142Y-93952380D01*
X83595238Y-93952380D01*
X83690476Y-94000000D01*
X83738095Y-94047619D01*
X83785714Y-94142857D01*
X83785714Y-94238095D01*
X83738095Y-94380952D01*
X83166666Y-94952380D01*
X83785714Y-94952380D01*
X84500000Y-95333333D02*
X84452380Y-95285714D01*
X84357142Y-95142857D01*
X84309523Y-95047619D01*
X84261904Y-94904761D01*
X84214285Y-94666666D01*
X84214285Y-94476190D01*
X84261904Y-94238095D01*
X84309523Y-94095238D01*
X84357142Y-94000000D01*
X84452380Y-93857142D01*
X84500000Y-93809523D01*
X84738095Y-93952380D02*
X85309523Y-93952380D01*
X85023809Y-94952380D02*
X85023809Y-93952380D01*
X86214285Y-94952380D02*
X85880952Y-94476190D01*
X85642857Y-94952380D02*
X85642857Y-93952380D01*
X86023809Y-93952380D01*
X86119047Y-94000000D01*
X86166666Y-94047619D01*
X86214285Y-94142857D01*
X86214285Y-94285714D01*
X86166666Y-94380952D01*
X86119047Y-94428571D01*
X86023809Y-94476190D01*
X85642857Y-94476190D01*
X86642857Y-94952380D02*
X86642857Y-93952380D01*
X87023809Y-95333333D02*
X87071428Y-95285714D01*
X87166666Y-95142857D01*
X87214285Y-95047619D01*
X87261904Y-94904761D01*
X87309523Y-94666666D01*
X87309523Y-94476190D01*
X87261904Y-94238095D01*
X87214285Y-94095238D01*
X87166666Y-94000000D01*
X87071428Y-93857142D01*
X87023809Y-93809523D01*
D11*
X155642857Y-91178571D02*
X154928571Y-91178571D01*
X154928571Y-89678571D01*
X156142857Y-90392857D02*
X156642857Y-90392857D01*
X156857142Y-91178571D02*
X156142857Y-91178571D01*
X156142857Y-89678571D01*
X156857142Y-89678571D01*
X157285714Y-89678571D02*
X157785714Y-91178571D01*
X158285714Y-89678571D01*
X158785714Y-90392857D02*
X159285714Y-90392857D01*
X159500000Y-91178571D02*
X158785714Y-91178571D01*
X158785714Y-89678571D01*
X159500000Y-89678571D01*
X160857142Y-91178571D02*
X160142857Y-91178571D01*
X160142857Y-89678571D01*
X161285714Y-89821428D02*
X161357142Y-89750000D01*
X161500000Y-89678571D01*
X161857142Y-89678571D01*
X162000000Y-89750000D01*
X162071428Y-89821428D01*
X162142857Y-89964285D01*
X162142857Y-90107142D01*
X162071428Y-90321428D01*
X161214285Y-91178571D01*
X162142857Y-91178571D01*
X145464285Y-57178571D02*
X145964285Y-58678571D01*
X146464285Y-57178571D01*
X147821428Y-58535714D02*
X147750000Y-58607142D01*
X147535714Y-58678571D01*
X147392857Y-58678571D01*
X147178571Y-58607142D01*
X147035714Y-58464285D01*
X146964285Y-58321428D01*
X146892857Y-58035714D01*
X146892857Y-57821428D01*
X146964285Y-57535714D01*
X147035714Y-57392857D01*
X147178571Y-57250000D01*
X147392857Y-57178571D01*
X147535714Y-57178571D01*
X147750000Y-57250000D01*
X147821428Y-57321428D01*
X148750000Y-57178571D02*
X149035714Y-57178571D01*
X149178571Y-57250000D01*
X149321428Y-57392857D01*
X149392857Y-57678571D01*
X149392857Y-58178571D01*
X149321428Y-58464285D01*
X149178571Y-58607142D01*
X149035714Y-58678571D01*
X148750000Y-58678571D01*
X148607142Y-58607142D01*
X148464285Y-58464285D01*
X148392857Y-58178571D01*
X148392857Y-57678571D01*
X148464285Y-57392857D01*
X148607142Y-57250000D01*
X148750000Y-57178571D01*
D10*
X91571428Y-64904761D02*
X91714285Y-64952380D01*
X91952380Y-64952380D01*
X92047619Y-64904761D01*
X92095238Y-64857142D01*
X92142857Y-64761904D01*
X92142857Y-64666666D01*
X92095238Y-64571428D01*
X92047619Y-64523809D01*
X91952380Y-64476190D01*
X91761904Y-64428571D01*
X91666666Y-64380952D01*
X91619047Y-64333333D01*
X91571428Y-64238095D01*
X91571428Y-64142857D01*
X91619047Y-64047619D01*
X91666666Y-64000000D01*
X91761904Y-63952380D01*
X92000000Y-63952380D01*
X92142857Y-64000000D01*
X92761904Y-63952380D02*
X92952380Y-63952380D01*
X93047619Y-64000000D01*
X93142857Y-64095238D01*
X93190476Y-64285714D01*
X93190476Y-64619047D01*
X93142857Y-64809523D01*
X93047619Y-64904761D01*
X92952380Y-64952380D01*
X92761904Y-64952380D01*
X92666666Y-64904761D01*
X92571428Y-64809523D01*
X92523809Y-64619047D01*
X92523809Y-64285714D01*
X92571428Y-64095238D01*
X92666666Y-64000000D01*
X92761904Y-63952380D01*
X93952380Y-64428571D02*
X93619047Y-64428571D01*
X93619047Y-64952380D02*
X93619047Y-63952380D01*
X94095238Y-63952380D01*
X94333333Y-63952380D02*
X94904761Y-63952380D01*
X94619047Y-64952380D02*
X94619047Y-63952380D01*
X95952380Y-64904761D02*
X96095238Y-64952380D01*
X96333333Y-64952380D01*
X96428571Y-64904761D01*
X96476190Y-64857142D01*
X96523809Y-64761904D01*
X96523809Y-64666666D01*
X96476190Y-64571428D01*
X96428571Y-64523809D01*
X96333333Y-64476190D01*
X96142857Y-64428571D01*
X96047619Y-64380952D01*
X96000000Y-64333333D01*
X95952380Y-64238095D01*
X95952380Y-64142857D01*
X96000000Y-64047619D01*
X96047619Y-64000000D01*
X96142857Y-63952380D01*
X96380952Y-63952380D01*
X96523809Y-64000000D01*
X97142857Y-64476190D02*
X97142857Y-64952380D01*
X96809523Y-63952380D02*
X97142857Y-64476190D01*
X97476190Y-63952380D01*
X97809523Y-64952380D02*
X97809523Y-63952380D01*
X98380952Y-64952380D01*
X98380952Y-63952380D01*
X99428571Y-64857142D02*
X99380952Y-64904761D01*
X99238095Y-64952380D01*
X99142857Y-64952380D01*
X99000000Y-64904761D01*
X98904761Y-64809523D01*
X98857142Y-64714285D01*
X98809523Y-64523809D01*
X98809523Y-64380952D01*
X98857142Y-64190476D01*
X98904761Y-64095238D01*
X99000000Y-64000000D01*
X99142857Y-63952380D01*
X99238095Y-63952380D01*
X99380952Y-64000000D01*
X99428571Y-64047619D01*
X80309523Y-123952380D02*
X80547619Y-124952380D01*
X80738095Y-124238095D01*
X80928571Y-124952380D01*
X81166666Y-123952380D01*
X81500000Y-124666666D02*
X81976190Y-124666666D01*
X81404761Y-124952380D02*
X81738095Y-123952380D01*
X82071428Y-124952380D01*
X82261904Y-123952380D02*
X82595238Y-124952380D01*
X82928571Y-123952380D01*
X83261904Y-124428571D02*
X83595238Y-124428571D01*
X83738095Y-124952380D02*
X83261904Y-124952380D01*
X83261904Y-123952380D01*
X83738095Y-123952380D01*
X84452380Y-125333333D02*
X84404761Y-125285714D01*
X84309523Y-125142857D01*
X84261904Y-125047619D01*
X84214285Y-124904761D01*
X84166666Y-124666666D01*
X84166666Y-124476190D01*
X84214285Y-124238095D01*
X84261904Y-124095238D01*
X84309523Y-124000000D01*
X84404761Y-123857142D01*
X84452380Y-123809523D01*
X84833333Y-124952380D02*
X84833333Y-123952380D01*
X85166666Y-124666666D01*
X85500000Y-123952380D01*
X85500000Y-124952380D01*
X85976190Y-124952380D02*
X85976190Y-123952380D01*
X86357142Y-123952380D02*
X87023809Y-124952380D01*
X87023809Y-123952380D02*
X86357142Y-124952380D01*
X87309523Y-125333333D02*
X87357142Y-125285714D01*
X87452380Y-125142857D01*
X87500000Y-125047619D01*
X87547619Y-124904761D01*
X87595238Y-124666666D01*
X87595238Y-124476190D01*
X87547619Y-124238095D01*
X87500000Y-124095238D01*
X87452380Y-124000000D01*
X87357142Y-123857142D01*
X87309523Y-123809523D01*
X71500000Y-49000000D02*
X71404761Y-48952380D01*
X71261904Y-48952380D01*
X71119047Y-49000000D01*
X71023809Y-49095238D01*
X70976190Y-49190476D01*
X70928571Y-49380952D01*
X70928571Y-49523809D01*
X70976190Y-49714285D01*
X71023809Y-49809523D01*
X71119047Y-49904761D01*
X71261904Y-49952380D01*
X71357142Y-49952380D01*
X71500000Y-49904761D01*
X71547619Y-49857142D01*
X71547619Y-49523809D01*
X71357142Y-49523809D01*
X71928571Y-49666666D02*
X72404761Y-49666666D01*
X71833333Y-49952380D02*
X72166666Y-48952380D01*
X72500000Y-49952380D01*
X72690476Y-48952380D02*
X73261904Y-48952380D01*
X72976190Y-49952380D02*
X72976190Y-48952380D01*
X73595238Y-49428571D02*
X73928571Y-49428571D01*
X74071428Y-49952380D02*
X73595238Y-49952380D01*
X73595238Y-48952380D01*
X74071428Y-48952380D01*
X93857142Y-109952380D02*
X93857142Y-108952380D01*
X94190476Y-109666666D01*
X94523809Y-108952380D01*
X94523809Y-109952380D01*
X95000000Y-108952380D02*
X95000000Y-109761904D01*
X95047619Y-109857142D01*
X95095238Y-109904761D01*
X95190476Y-109952380D01*
X95380952Y-109952380D01*
X95476190Y-109904761D01*
X95523809Y-109857142D01*
X95571428Y-109761904D01*
X95571428Y-108952380D01*
X96523809Y-109952380D02*
X96047619Y-109952380D01*
X96047619Y-108952380D01*
X96714285Y-108952380D02*
X97285714Y-108952380D01*
X97000000Y-109952380D02*
X97000000Y-108952380D01*
D11*
X202071428Y-112107142D02*
X202285714Y-112178571D01*
X202642857Y-112178571D01*
X202785714Y-112107142D01*
X202857142Y-112035714D01*
X202928571Y-111892857D01*
X202928571Y-111750000D01*
X202857142Y-111607142D01*
X202785714Y-111535714D01*
X202642857Y-111464285D01*
X202357142Y-111392857D01*
X202214285Y-111321428D01*
X202142857Y-111250000D01*
X202071428Y-111107142D01*
X202071428Y-110964285D01*
X202142857Y-110821428D01*
X202214285Y-110750000D01*
X202357142Y-110678571D01*
X202714285Y-110678571D01*
X202928571Y-110750000D01*
D10*
X75385714Y-36552380D02*
X75385714Y-35552380D01*
X75861904Y-36552380D02*
X75861904Y-35552380D01*
X76433333Y-36552380D01*
X76433333Y-35552380D01*
X78623809Y-35552380D02*
X78814285Y-35552380D01*
X78909523Y-35600000D01*
X79004761Y-35695238D01*
X79052380Y-35885714D01*
X79052380Y-36219047D01*
X79004761Y-36409523D01*
X78909523Y-36504761D01*
X78814285Y-36552380D01*
X78623809Y-36552380D01*
X78528571Y-36504761D01*
X78433333Y-36409523D01*
X78385714Y-36219047D01*
X78385714Y-35885714D01*
X78433333Y-35695238D01*
X78528571Y-35600000D01*
X78623809Y-35552380D01*
X79480952Y-35552380D02*
X79480952Y-36361904D01*
X79528571Y-36457142D01*
X79576190Y-36504761D01*
X79671428Y-36552380D01*
X79861904Y-36552380D01*
X79957142Y-36504761D01*
X80004761Y-36457142D01*
X80052380Y-36361904D01*
X80052380Y-35552380D01*
X80385714Y-35552380D02*
X80957142Y-35552380D01*
X80671428Y-36552380D02*
X80671428Y-35552380D01*
D11*
X221678571Y-70178571D02*
X221678571Y-68678571D01*
X222250000Y-68678571D01*
X222392857Y-68750000D01*
X222464285Y-68821428D01*
X222535714Y-68964285D01*
X222535714Y-69178571D01*
X222464285Y-69321428D01*
X222392857Y-69392857D01*
X222250000Y-69464285D01*
X221678571Y-69464285D01*
X223107142Y-69750000D02*
X223821428Y-69750000D01*
X222964285Y-70178571D02*
X223464285Y-68678571D01*
X223964285Y-70178571D01*
X224464285Y-70178571D02*
X224464285Y-68678571D01*
X225321428Y-70178571D01*
X225321428Y-68678571D01*
D10*
X81023809Y-48952380D02*
X81595238Y-48952380D01*
X81309523Y-49952380D02*
X81309523Y-48952380D01*
X82500000Y-49952380D02*
X82166666Y-49476190D01*
X81928571Y-49952380D02*
X81928571Y-48952380D01*
X82309523Y-48952380D01*
X82404761Y-49000000D01*
X82452380Y-49047619D01*
X82500000Y-49142857D01*
X82500000Y-49285714D01*
X82452380Y-49380952D01*
X82404761Y-49428571D01*
X82309523Y-49476190D01*
X81928571Y-49476190D01*
X82928571Y-49952380D02*
X82928571Y-48952380D01*
X83928571Y-49000000D02*
X83833333Y-48952380D01*
X83690476Y-48952380D01*
X83547619Y-49000000D01*
X83452380Y-49095238D01*
X83404761Y-49190476D01*
X83357142Y-49380952D01*
X83357142Y-49523809D01*
X83404761Y-49714285D01*
X83452380Y-49809523D01*
X83547619Y-49904761D01*
X83690476Y-49952380D01*
X83785714Y-49952380D01*
X83928571Y-49904761D01*
X83976190Y-49857142D01*
X83976190Y-49523809D01*
X83785714Y-49523809D01*
X84928571Y-49000000D02*
X84833333Y-48952380D01*
X84690476Y-48952380D01*
X84547619Y-49000000D01*
X84452380Y-49095238D01*
X84404761Y-49190476D01*
X84357142Y-49380952D01*
X84357142Y-49523809D01*
X84404761Y-49714285D01*
X84452380Y-49809523D01*
X84547619Y-49904761D01*
X84690476Y-49952380D01*
X84785714Y-49952380D01*
X84928571Y-49904761D01*
X84976190Y-49857142D01*
X84976190Y-49523809D01*
X84785714Y-49523809D01*
X85404761Y-49428571D02*
X85738095Y-49428571D01*
X85880952Y-49952380D02*
X85404761Y-49952380D01*
X85404761Y-48952380D01*
X85880952Y-48952380D01*
X86880952Y-49952380D02*
X86547619Y-49476190D01*
X86309523Y-49952380D02*
X86309523Y-48952380D01*
X86690476Y-48952380D01*
X86785714Y-49000000D01*
X86833333Y-49047619D01*
X86880952Y-49142857D01*
X86880952Y-49285714D01*
X86833333Y-49380952D01*
X86785714Y-49428571D01*
X86690476Y-49476190D01*
X86309523Y-49476190D01*
D11*
X200500000Y-69392857D02*
X200000000Y-69392857D01*
X200000000Y-70178571D02*
X200000000Y-68678571D01*
X200714285Y-68678571D01*
X202142857Y-70178571D02*
X201642857Y-69464285D01*
X201285714Y-70178571D02*
X201285714Y-68678571D01*
X201857142Y-68678571D01*
X202000000Y-68750000D01*
X202071428Y-68821428D01*
X202142857Y-68964285D01*
X202142857Y-69178571D01*
X202071428Y-69321428D01*
X202000000Y-69392857D01*
X201857142Y-69464285D01*
X201285714Y-69464285D01*
X202785714Y-69392857D02*
X203285714Y-69392857D01*
X203500000Y-70178571D02*
X202785714Y-70178571D01*
X202785714Y-68678571D01*
X203500000Y-68678571D01*
X205142857Y-70321428D02*
X205000000Y-70250000D01*
X204857142Y-70107142D01*
X204642857Y-69892857D01*
X204500000Y-69821428D01*
X204357142Y-69821428D01*
X204428571Y-70178571D02*
X204285714Y-70107142D01*
X204142857Y-69964285D01*
X204071428Y-69678571D01*
X204071428Y-69178571D01*
X204142857Y-68892857D01*
X204285714Y-68750000D01*
X204428571Y-68678571D01*
X204714285Y-68678571D01*
X204857142Y-68750000D01*
X205000000Y-68892857D01*
X205071428Y-69178571D01*
X205071428Y-69678571D01*
X205000000Y-69964285D01*
X204857142Y-70107142D01*
X204714285Y-70178571D01*
X204428571Y-70178571D01*
D10*
X116140595Y-43349761D02*
X116283452Y-43397380D01*
X116521547Y-43397380D01*
X116616785Y-43349761D01*
X116664404Y-43302142D01*
X116712023Y-43206904D01*
X116712023Y-43111666D01*
X116664404Y-43016428D01*
X116616785Y-42968809D01*
X116521547Y-42921190D01*
X116331071Y-42873571D01*
X116235833Y-42825952D01*
X116188214Y-42778333D01*
X116140595Y-42683095D01*
X116140595Y-42587857D01*
X116188214Y-42492619D01*
X116235833Y-42445000D01*
X116331071Y-42397380D01*
X116569166Y-42397380D01*
X116712023Y-42445000D01*
X117092976Y-43111666D02*
X117569166Y-43111666D01*
X116997738Y-43397380D02*
X117331071Y-42397380D01*
X117664404Y-43397380D01*
X117902500Y-42397380D02*
X118140595Y-43397380D01*
X118331071Y-42683095D01*
X118521547Y-43397380D01*
X118759642Y-42397380D01*
X116759642Y-44007380D02*
X117331071Y-44007380D01*
X117045357Y-45007380D02*
X117045357Y-44007380D01*
X118235833Y-45007380D02*
X117902500Y-44531190D01*
X117664404Y-45007380D02*
X117664404Y-44007380D01*
X118045357Y-44007380D01*
X118140595Y-44055000D01*
X118188214Y-44102619D01*
X118235833Y-44197857D01*
X118235833Y-44340714D01*
X118188214Y-44435952D01*
X118140595Y-44483571D01*
X118045357Y-44531190D01*
X117664404Y-44531190D01*
X118664404Y-45007380D02*
X118664404Y-44007380D01*
X192261904Y-37166666D02*
X192738095Y-37166666D01*
X192166666Y-37452380D02*
X192500000Y-36452380D01*
X192833333Y-37452380D01*
X164119047Y-43016428D02*
X164880952Y-43016428D01*
X164500000Y-43397380D02*
X164500000Y-42635476D01*
X164119047Y-44626428D02*
X164880952Y-44626428D01*
D11*
X189607142Y-57178571D02*
X190107142Y-58678571D01*
X190607142Y-57178571D01*
X191964285Y-58535714D02*
X191892857Y-58607142D01*
X191678571Y-58678571D01*
X191535714Y-58678571D01*
X191321428Y-58607142D01*
X191178571Y-58464285D01*
X191107142Y-58321428D01*
X191035714Y-58035714D01*
X191035714Y-57821428D01*
X191107142Y-57535714D01*
X191178571Y-57392857D01*
X191321428Y-57250000D01*
X191535714Y-57178571D01*
X191678571Y-57178571D01*
X191892857Y-57250000D01*
X191964285Y-57321428D01*
X193107142Y-57892857D02*
X192607142Y-57892857D01*
X192607142Y-58678571D02*
X192607142Y-57178571D01*
X193321428Y-57178571D01*
X133642857Y-91178571D02*
X132928571Y-91178571D01*
X132928571Y-89678571D01*
X134142857Y-90392857D02*
X134642857Y-90392857D01*
X134857142Y-91178571D02*
X134142857Y-91178571D01*
X134142857Y-89678571D01*
X134857142Y-89678571D01*
X135285714Y-89678571D02*
X135785714Y-91178571D01*
X136285714Y-89678571D01*
X136785714Y-90392857D02*
X137285714Y-90392857D01*
X137500000Y-91178571D02*
X136785714Y-91178571D01*
X136785714Y-89678571D01*
X137500000Y-89678571D01*
X138857142Y-91178571D02*
X138142857Y-91178571D01*
X138142857Y-89678571D01*
X140142857Y-91178571D02*
X139285714Y-91178571D01*
X139714285Y-91178571D02*
X139714285Y-89678571D01*
X139571428Y-89892857D01*
X139428571Y-90035714D01*
X139285714Y-90107142D01*
D10*
X222309523Y-46452380D02*
X221833333Y-46452380D01*
X221833333Y-45452380D01*
D11*
X190428571Y-99892857D02*
X190928571Y-99892857D01*
X191142857Y-100678571D02*
X190428571Y-100678571D01*
X190428571Y-99178571D01*
X191142857Y-99178571D01*
X192571428Y-99250000D02*
X192428571Y-99178571D01*
X192214285Y-99178571D01*
X192000000Y-99250000D01*
X191857142Y-99392857D01*
X191785714Y-99535714D01*
X191714285Y-99821428D01*
X191714285Y-100035714D01*
X191785714Y-100321428D01*
X191857142Y-100464285D01*
X192000000Y-100607142D01*
X192214285Y-100678571D01*
X192357142Y-100678571D01*
X192571428Y-100607142D01*
X192642857Y-100535714D01*
X192642857Y-100035714D01*
X192357142Y-100035714D01*
D10*
X172809523Y-37357142D02*
X172761904Y-37404761D01*
X172619047Y-37452380D01*
X172523809Y-37452380D01*
X172380952Y-37404761D01*
X172285714Y-37309523D01*
X172238095Y-37214285D01*
X172190476Y-37023809D01*
X172190476Y-36880952D01*
X172238095Y-36690476D01*
X172285714Y-36595238D01*
X172380952Y-36500000D01*
X172523809Y-36452380D01*
X172619047Y-36452380D01*
X172761904Y-36500000D01*
X172809523Y-36547619D01*
X71857142Y-124952380D02*
X71380952Y-124952380D01*
X71380952Y-123952380D01*
X72523809Y-124428571D02*
X72190476Y-124428571D01*
X72190476Y-124952380D02*
X72190476Y-123952380D01*
X72666666Y-123952380D01*
X73238095Y-123952380D02*
X73428571Y-123952380D01*
X73523809Y-124000000D01*
X73619047Y-124095238D01*
X73666666Y-124285714D01*
X73666666Y-124619047D01*
X73619047Y-124809523D01*
X73523809Y-124904761D01*
X73428571Y-124952380D01*
X73238095Y-124952380D01*
X73142857Y-124904761D01*
X73047619Y-124809523D01*
X73000000Y-124619047D01*
X73000000Y-124285714D01*
X73047619Y-124095238D01*
X73142857Y-124000000D01*
X73238095Y-123952380D01*
D11*
X112214285Y-70178571D02*
X112214285Y-68678571D01*
X112714285Y-69750000D01*
X113214285Y-68678571D01*
X113214285Y-70178571D01*
X113928571Y-70178571D02*
X113928571Y-68678571D01*
X114500000Y-68678571D02*
X115500000Y-70178571D01*
X115500000Y-68678571D02*
X114500000Y-70178571D01*
X116857142Y-70178571D02*
X116000000Y-70178571D01*
X116428571Y-70178571D02*
X116428571Y-68678571D01*
X116285714Y-68892857D01*
X116142857Y-69035714D01*
X116000000Y-69107142D01*
D10*
X80452380Y-78952380D02*
X80785714Y-79952380D01*
X81119047Y-78952380D01*
X82023809Y-79857142D02*
X81976190Y-79904761D01*
X81833333Y-79952380D01*
X81738095Y-79952380D01*
X81595238Y-79904761D01*
X81500000Y-79809523D01*
X81452380Y-79714285D01*
X81404761Y-79523809D01*
X81404761Y-79380952D01*
X81452380Y-79190476D01*
X81500000Y-79095238D01*
X81595238Y-79000000D01*
X81738095Y-78952380D01*
X81833333Y-78952380D01*
X81976190Y-79000000D01*
X82023809Y-79047619D01*
X82785714Y-79428571D02*
X82452380Y-79428571D01*
X82452380Y-79952380D02*
X82452380Y-78952380D01*
X82928571Y-78952380D01*
X84404761Y-79428571D02*
X84071428Y-79428571D01*
X84071428Y-79952380D02*
X84071428Y-78952380D01*
X84547619Y-78952380D01*
X85500000Y-79952380D02*
X85166666Y-79476190D01*
X84928571Y-79952380D02*
X84928571Y-78952380D01*
X85309523Y-78952380D01*
X85404761Y-79000000D01*
X85452380Y-79047619D01*
X85500000Y-79142857D01*
X85500000Y-79285714D01*
X85452380Y-79380952D01*
X85404761Y-79428571D01*
X85309523Y-79476190D01*
X84928571Y-79476190D01*
X85928571Y-79428571D02*
X86261904Y-79428571D01*
X86404761Y-79952380D02*
X85928571Y-79952380D01*
X85928571Y-78952380D01*
X86404761Y-78952380D01*
X87500000Y-80047619D02*
X87404761Y-80000000D01*
X87309523Y-79904761D01*
X87166666Y-79761904D01*
X87071428Y-79714285D01*
X86976190Y-79714285D01*
X87023809Y-79952380D02*
X86928571Y-79904761D01*
X86833333Y-79809523D01*
X86785714Y-79619047D01*
X86785714Y-79285714D01*
X86833333Y-79095238D01*
X86928571Y-79000000D01*
X87023809Y-78952380D01*
X87214285Y-78952380D01*
X87309523Y-79000000D01*
X87404761Y-79095238D01*
X87452380Y-79285714D01*
X87452380Y-79619047D01*
X87404761Y-79809523D01*
X87309523Y-79904761D01*
X87214285Y-79952380D01*
X87023809Y-79952380D01*
X182321428Y-36928571D02*
X182464285Y-36976190D01*
X182511904Y-37023809D01*
X182559523Y-37119047D01*
X182559523Y-37261904D01*
X182511904Y-37357142D01*
X182464285Y-37404761D01*
X182369047Y-37452380D01*
X181988095Y-37452380D01*
X181988095Y-36452380D01*
X182321428Y-36452380D01*
X182416666Y-36500000D01*
X182464285Y-36547619D01*
X182511904Y-36642857D01*
X182511904Y-36738095D01*
X182464285Y-36833333D01*
X182416666Y-36880952D01*
X182321428Y-36928571D01*
X181988095Y-36928571D01*
X71095238Y-64952380D02*
X71095238Y-63952380D01*
X71476190Y-63952380D01*
X71571428Y-64000000D01*
X71619047Y-64047619D01*
X71666666Y-64142857D01*
X71666666Y-64285714D01*
X71619047Y-64380952D01*
X71571428Y-64428571D01*
X71476190Y-64476190D01*
X71095238Y-64476190D01*
X72000000Y-63952380D02*
X72238095Y-64952380D01*
X72428571Y-64238095D01*
X72619047Y-64952380D01*
X72857142Y-63952380D01*
X73238095Y-64952380D02*
X73238095Y-63952380D01*
X73571428Y-64666666D01*
X73904761Y-63952380D01*
X73904761Y-64952380D01*
X81880952Y-109952380D02*
X81880952Y-108952380D01*
X82214285Y-109666666D01*
X82547619Y-108952380D01*
X82547619Y-109952380D01*
X83023809Y-108952380D02*
X83023809Y-109761904D01*
X83071428Y-109857142D01*
X83119047Y-109904761D01*
X83214285Y-109952380D01*
X83404761Y-109952380D01*
X83500000Y-109904761D01*
X83547619Y-109857142D01*
X83595238Y-109761904D01*
X83595238Y-108952380D01*
X84547619Y-109952380D02*
X84071428Y-109952380D01*
X84071428Y-108952380D01*
X84738095Y-108952380D02*
X85309523Y-108952380D01*
X85023809Y-109952380D02*
X85023809Y-108952380D01*
X85595238Y-109047619D02*
X85642857Y-109000000D01*
X85738095Y-108952380D01*
X85976190Y-108952380D01*
X86071428Y-109000000D01*
X86119047Y-109047619D01*
X86166666Y-109142857D01*
X86166666Y-109238095D01*
X86119047Y-109380952D01*
X85547619Y-109952380D01*
X86166666Y-109952380D01*
X57380952Y-64428571D02*
X57714285Y-64428571D01*
X57857142Y-64952380D02*
X57380952Y-64952380D01*
X57380952Y-63952380D01*
X57857142Y-63952380D01*
X58190476Y-63952380D02*
X58857142Y-64952380D01*
X58857142Y-63952380D02*
X58190476Y-64952380D01*
X59095238Y-63952380D02*
X59666666Y-63952380D01*
X59380952Y-64952380D02*
X59380952Y-63952380D01*
X60285714Y-65333333D02*
X60238095Y-65285714D01*
X60142857Y-65142857D01*
X60095238Y-65047619D01*
X60047619Y-64904761D01*
X60000000Y-64666666D01*
X60000000Y-64476190D01*
X60047619Y-64238095D01*
X60095238Y-64095238D01*
X60142857Y-64000000D01*
X60238095Y-63857142D01*
X60285714Y-63809523D01*
X60571428Y-63952380D02*
X60809523Y-64952380D01*
X61000000Y-64238095D01*
X61190476Y-64952380D01*
X61428571Y-63952380D01*
X61761904Y-64666666D02*
X62238095Y-64666666D01*
X61666666Y-64952380D02*
X62000000Y-63952380D01*
X62333333Y-64952380D01*
X62523809Y-63952380D02*
X62857142Y-64952380D01*
X63190476Y-63952380D01*
X63523809Y-64428571D02*
X63857142Y-64428571D01*
X64000000Y-64952380D02*
X63523809Y-64952380D01*
X63523809Y-63952380D01*
X64000000Y-63952380D01*
X64333333Y-65333333D02*
X64380952Y-65285714D01*
X64476190Y-65142857D01*
X64523809Y-65047619D01*
X64571428Y-64904761D01*
X64619047Y-64666666D01*
X64619047Y-64476190D01*
X64571428Y-64238095D01*
X64523809Y-64095238D01*
X64476190Y-64000000D01*
X64380952Y-63857142D01*
X64333333Y-63809523D01*
D11*
X180107142Y-112178571D02*
X180107142Y-110678571D01*
X180464285Y-110678571D01*
X180678571Y-110750000D01*
X180821428Y-110892857D01*
X180892857Y-111035714D01*
X180964285Y-111321428D01*
X180964285Y-111535714D01*
X180892857Y-111821428D01*
X180821428Y-111964285D01*
X180678571Y-112107142D01*
X180464285Y-112178571D01*
X180107142Y-112178571D01*
D10*
X150511904Y-36452380D02*
X150845238Y-37452380D01*
X151178571Y-36452380D01*
X152083333Y-37357142D02*
X152035714Y-37404761D01*
X151892857Y-37452380D01*
X151797619Y-37452380D01*
X151654761Y-37404761D01*
X151559523Y-37309523D01*
X151511904Y-37214285D01*
X151464285Y-37023809D01*
X151464285Y-36880952D01*
X151511904Y-36690476D01*
X151559523Y-36595238D01*
X151654761Y-36500000D01*
X151797619Y-36452380D01*
X151892857Y-36452380D01*
X152035714Y-36500000D01*
X152083333Y-36547619D01*
X152845238Y-36928571D02*
X152511904Y-36928571D01*
X152511904Y-37452380D02*
X152511904Y-36452380D01*
X152988095Y-36452380D01*
X154130952Y-37452380D02*
X154130952Y-36452380D01*
X154464285Y-37166666D01*
X154797619Y-36452380D01*
X154797619Y-37452380D01*
X155464285Y-36452380D02*
X155654761Y-36452380D01*
X155750000Y-36500000D01*
X155845238Y-36595238D01*
X155892857Y-36785714D01*
X155892857Y-37119047D01*
X155845238Y-37309523D01*
X155750000Y-37404761D01*
X155654761Y-37452380D01*
X155464285Y-37452380D01*
X155369047Y-37404761D01*
X155273809Y-37309523D01*
X155226190Y-37119047D01*
X155226190Y-36785714D01*
X155273809Y-36595238D01*
X155369047Y-36500000D01*
X155464285Y-36452380D01*
X156321428Y-37452380D02*
X156321428Y-36452380D01*
X156559523Y-36452380D01*
X156702380Y-36500000D01*
X156797619Y-36595238D01*
X156845238Y-36690476D01*
X156892857Y-36880952D01*
X156892857Y-37023809D01*
X156845238Y-37214285D01*
X156797619Y-37309523D01*
X156702380Y-37404761D01*
X156559523Y-37452380D01*
X156321428Y-37452380D01*
D11*
X133821428Y-68678571D02*
X134678571Y-68678571D01*
X134250000Y-70178571D02*
X134250000Y-68678571D01*
X135178571Y-68678571D02*
X135178571Y-69892857D01*
X135250000Y-70035714D01*
X135321428Y-70107142D01*
X135464285Y-70178571D01*
X135750000Y-70178571D01*
X135892857Y-70107142D01*
X135964285Y-70035714D01*
X136035714Y-69892857D01*
X136035714Y-68678571D01*
X136750000Y-70178571D02*
X136750000Y-68678571D01*
X137607142Y-70178571D01*
X137607142Y-68678571D01*
X138321428Y-69392857D02*
X138821428Y-69392857D01*
X139035714Y-70178571D02*
X138321428Y-70178571D01*
X138321428Y-68678571D01*
X139035714Y-68678571D01*
D10*
X68785714Y-94952380D02*
X68785714Y-93952380D01*
X69119047Y-94666666D01*
X69452380Y-93952380D01*
X69452380Y-94952380D01*
X69928571Y-94952380D02*
X69928571Y-93952380D01*
X70309523Y-93952380D02*
X70976190Y-94952380D01*
X70976190Y-93952380D02*
X70309523Y-94952380D01*
X71880952Y-94952380D02*
X71309523Y-94952380D01*
X71595238Y-94952380D02*
X71595238Y-93952380D01*
X71500000Y-94095238D01*
X71404761Y-94190476D01*
X71309523Y-94238095D01*
X72595238Y-95333333D02*
X72547619Y-95285714D01*
X72452380Y-95142857D01*
X72404761Y-95047619D01*
X72357142Y-94904761D01*
X72309523Y-94666666D01*
X72309523Y-94476190D01*
X72357142Y-94238095D01*
X72404761Y-94095238D01*
X72452380Y-94000000D01*
X72547619Y-93857142D01*
X72595238Y-93809523D01*
X72976190Y-94571428D02*
X73738095Y-94571428D01*
X74690476Y-93952380D02*
X74214285Y-93952380D01*
X74166666Y-94428571D01*
X74214285Y-94380952D01*
X74309523Y-94333333D01*
X74547619Y-94333333D01*
X74642857Y-94380952D01*
X74690476Y-94428571D01*
X74738095Y-94523809D01*
X74738095Y-94761904D01*
X74690476Y-94857142D01*
X74642857Y-94904761D01*
X74547619Y-94952380D01*
X74309523Y-94952380D01*
X74214285Y-94904761D01*
X74166666Y-94857142D01*
X75023809Y-93952380D02*
X75357142Y-94952380D01*
X75690476Y-93952380D01*
X75928571Y-95333333D02*
X75976190Y-95285714D01*
X76071428Y-95142857D01*
X76119047Y-95047619D01*
X76166666Y-94904761D01*
X76214285Y-94666666D01*
X76214285Y-94476190D01*
X76166666Y-94238095D01*
X76119047Y-94095238D01*
X76071428Y-94000000D01*
X75976190Y-93857142D01*
X75928571Y-93809523D01*
X178238095Y-50428571D02*
X177904761Y-50428571D01*
X177904761Y-50952380D02*
X177904761Y-49952380D01*
X178380952Y-49952380D01*
X178761904Y-50952380D02*
X178761904Y-49952380D01*
X179714285Y-50952380D02*
X179238095Y-50952380D01*
X179238095Y-49952380D01*
X179904761Y-49952380D02*
X180476190Y-49952380D01*
X180190476Y-50952380D02*
X180190476Y-49952380D01*
X180809523Y-50428571D02*
X181142857Y-50428571D01*
X181285714Y-50952380D02*
X180809523Y-50952380D01*
X180809523Y-49952380D01*
X181285714Y-49952380D01*
X182285714Y-50952380D02*
X181952380Y-50476190D01*
X181714285Y-50952380D02*
X181714285Y-49952380D01*
X182095238Y-49952380D01*
X182190476Y-50000000D01*
X182238095Y-50047619D01*
X182285714Y-50142857D01*
X182285714Y-50285714D01*
X182238095Y-50380952D01*
X182190476Y-50428571D01*
X182095238Y-50476190D01*
X181714285Y-50476190D01*
X183476190Y-50952380D02*
X183476190Y-49952380D01*
X183809523Y-50666666D01*
X184142857Y-49952380D01*
X184142857Y-50952380D01*
X184809523Y-49952380D02*
X185000000Y-49952380D01*
X185095238Y-50000000D01*
X185190476Y-50095238D01*
X185238095Y-50285714D01*
X185238095Y-50619047D01*
X185190476Y-50809523D01*
X185095238Y-50904761D01*
X185000000Y-50952380D01*
X184809523Y-50952380D01*
X184714285Y-50904761D01*
X184619047Y-50809523D01*
X184571428Y-50619047D01*
X184571428Y-50285714D01*
X184619047Y-50095238D01*
X184714285Y-50000000D01*
X184809523Y-49952380D01*
X185666666Y-50952380D02*
X185666666Y-49952380D01*
X185904761Y-49952380D01*
X186047619Y-50000000D01*
X186142857Y-50095238D01*
X186190476Y-50190476D01*
X186238095Y-50380952D01*
X186238095Y-50523809D01*
X186190476Y-50714285D01*
X186142857Y-50809523D01*
X186047619Y-50904761D01*
X185904761Y-50952380D01*
X185666666Y-50952380D01*
X186666666Y-50428571D02*
X187000000Y-50428571D01*
X187142857Y-50952380D02*
X186666666Y-50952380D01*
X186666666Y-49952380D01*
X187142857Y-49952380D01*
X69619047Y-78952380D02*
X69952380Y-79952380D01*
X70285714Y-78952380D01*
X71190476Y-79857142D02*
X71142857Y-79904761D01*
X71000000Y-79952380D01*
X70904761Y-79952380D01*
X70761904Y-79904761D01*
X70666666Y-79809523D01*
X70619047Y-79714285D01*
X70571428Y-79523809D01*
X70571428Y-79380952D01*
X70619047Y-79190476D01*
X70666666Y-79095238D01*
X70761904Y-79000000D01*
X70904761Y-78952380D01*
X71000000Y-78952380D01*
X71142857Y-79000000D01*
X71190476Y-79047619D01*
X71571428Y-79666666D02*
X72047619Y-79666666D01*
X71476190Y-79952380D02*
X71809523Y-78952380D01*
X72142857Y-79952380D01*
X72761904Y-80333333D02*
X72714285Y-80285714D01*
X72619047Y-80142857D01*
X72571428Y-80047619D01*
X72523809Y-79904761D01*
X72476190Y-79666666D01*
X72476190Y-79476190D01*
X72523809Y-79238095D01*
X72571428Y-79095238D01*
X72619047Y-79000000D01*
X72714285Y-78857142D01*
X72761904Y-78809523D01*
X73142857Y-79428571D02*
X73476190Y-79428571D01*
X73619047Y-79952380D02*
X73142857Y-79952380D01*
X73142857Y-78952380D01*
X73619047Y-78952380D01*
X74571428Y-79000000D02*
X74476190Y-78952380D01*
X74333333Y-78952380D01*
X74190476Y-79000000D01*
X74095238Y-79095238D01*
X74047619Y-79190476D01*
X74000000Y-79380952D01*
X74000000Y-79523809D01*
X74047619Y-79714285D01*
X74095238Y-79809523D01*
X74190476Y-79904761D01*
X74333333Y-79952380D01*
X74428571Y-79952380D01*
X74571428Y-79904761D01*
X74619047Y-79857142D01*
X74619047Y-79523809D01*
X74428571Y-79523809D01*
X74952380Y-80333333D02*
X75000000Y-80285714D01*
X75095238Y-80142857D01*
X75142857Y-80047619D01*
X75190476Y-79904761D01*
X75238095Y-79666666D01*
X75238095Y-79476190D01*
X75190476Y-79238095D01*
X75142857Y-79095238D01*
X75095238Y-79000000D01*
X75000000Y-78857142D01*
X74952380Y-78809523D01*
X58928571Y-49952380D02*
X58357142Y-49952380D01*
X58642857Y-49952380D02*
X58642857Y-48952380D01*
X58547619Y-49095238D01*
X58452380Y-49190476D01*
X58357142Y-49238095D01*
X59214285Y-48952380D02*
X59547619Y-49952380D01*
X59880952Y-48952380D01*
X60928571Y-48904761D02*
X60071428Y-50190476D01*
X61452380Y-48952380D02*
X61642857Y-48952380D01*
X61738095Y-49000000D01*
X61833333Y-49095238D01*
X61880952Y-49285714D01*
X61880952Y-49619047D01*
X61833333Y-49809523D01*
X61738095Y-49904761D01*
X61642857Y-49952380D01*
X61452380Y-49952380D01*
X61357142Y-49904761D01*
X61261904Y-49809523D01*
X61214285Y-49619047D01*
X61214285Y-49285714D01*
X61261904Y-49095238D01*
X61357142Y-49000000D01*
X61452380Y-48952380D01*
X62880952Y-49857142D02*
X62833333Y-49904761D01*
X62690476Y-49952380D01*
X62595238Y-49952380D01*
X62452380Y-49904761D01*
X62357142Y-49809523D01*
X62309523Y-49714285D01*
X62261904Y-49523809D01*
X62261904Y-49380952D01*
X62309523Y-49190476D01*
X62357142Y-49095238D01*
X62452380Y-49000000D01*
X62595238Y-48952380D01*
X62690476Y-48952380D01*
X62833333Y-49000000D01*
X62880952Y-49047619D01*
X63166666Y-48952380D02*
X63738095Y-48952380D01*
X63452380Y-49952380D02*
X63452380Y-48952380D01*
D11*
X108857142Y-110678571D02*
X109214285Y-112178571D01*
X109500000Y-111107142D01*
X109785714Y-112178571D01*
X110142857Y-110678571D01*
X110642857Y-111750000D02*
X111357142Y-111750000D01*
X110500000Y-112178571D02*
X111000000Y-110678571D01*
X111500000Y-112178571D01*
X111785714Y-110678571D02*
X112285714Y-112178571D01*
X112785714Y-110678571D01*
X113285714Y-111392857D02*
X113785714Y-111392857D01*
X114000000Y-112178571D02*
X113285714Y-112178571D01*
X113285714Y-110678571D01*
X114000000Y-110678571D01*
X115142857Y-111392857D02*
X114642857Y-111392857D01*
X114642857Y-112178571D02*
X114642857Y-110678571D01*
X115357142Y-110678571D01*
X116214285Y-110678571D02*
X116500000Y-110678571D01*
X116642857Y-110750000D01*
X116785714Y-110892857D01*
X116857142Y-111178571D01*
X116857142Y-111678571D01*
X116785714Y-111964285D01*
X116642857Y-112107142D01*
X116500000Y-112178571D01*
X116214285Y-112178571D01*
X116071428Y-112107142D01*
X115928571Y-111964285D01*
X115857142Y-111678571D01*
X115857142Y-111178571D01*
X115928571Y-110892857D01*
X116071428Y-110750000D01*
X116214285Y-110678571D01*
X118357142Y-112178571D02*
X117857142Y-111464285D01*
X117500000Y-112178571D02*
X117500000Y-110678571D01*
X118071428Y-110678571D01*
X118214285Y-110750000D01*
X118285714Y-110821428D01*
X118357142Y-110964285D01*
X118357142Y-111178571D01*
X118285714Y-111321428D01*
X118214285Y-111392857D01*
X118071428Y-111464285D01*
X117500000Y-111464285D01*
X119000000Y-112178571D02*
X119000000Y-110678571D01*
X119500000Y-111750000D01*
X120000000Y-110678571D01*
X120000000Y-112178571D01*
X113000000Y-90750000D02*
X113714285Y-90750000D01*
X112857142Y-91178571D02*
X113357142Y-89678571D01*
X113857142Y-91178571D01*
X114142857Y-89678571D02*
X115000000Y-89678571D01*
X114571428Y-91178571D02*
X114571428Y-89678571D01*
X115285714Y-89678571D02*
X116142857Y-89678571D01*
X115714285Y-91178571D02*
X115714285Y-89678571D01*
X223964285Y-112178571D02*
X223464285Y-111464285D01*
X223107142Y-112178571D02*
X223107142Y-110678571D01*
X223678571Y-110678571D01*
X223821428Y-110750000D01*
X223892857Y-110821428D01*
X223964285Y-110964285D01*
X223964285Y-111178571D01*
X223892857Y-111321428D01*
X223821428Y-111392857D01*
X223678571Y-111464285D01*
X223107142Y-111464285D01*
D10*
X93761904Y-123952380D02*
X94000000Y-124952380D01*
X94190476Y-124238095D01*
X94380952Y-124952380D01*
X94619047Y-123952380D01*
X94952380Y-124666666D02*
X95428571Y-124666666D01*
X94857142Y-124952380D02*
X95190476Y-123952380D01*
X95523809Y-124952380D01*
X95714285Y-123952380D02*
X96047619Y-124952380D01*
X96380952Y-123952380D01*
X96714285Y-124428571D02*
X97047619Y-124428571D01*
X97190476Y-124952380D02*
X96714285Y-124952380D01*
X96714285Y-123952380D01*
X97190476Y-123952380D01*
X157166666Y-50428571D02*
X156833333Y-50428571D01*
X156833333Y-50952380D02*
X156833333Y-49952380D01*
X157309523Y-49952380D01*
X158261904Y-50952380D02*
X157928571Y-50476190D01*
X157690476Y-50952380D02*
X157690476Y-49952380D01*
X158071428Y-49952380D01*
X158166666Y-50000000D01*
X158214285Y-50047619D01*
X158261904Y-50142857D01*
X158261904Y-50285714D01*
X158214285Y-50380952D01*
X158166666Y-50428571D01*
X158071428Y-50476190D01*
X157690476Y-50476190D01*
X158690476Y-50428571D02*
X159023809Y-50428571D01*
X159166666Y-50952380D02*
X158690476Y-50952380D01*
X158690476Y-49952380D01*
X159166666Y-49952380D01*
X160261904Y-51047619D02*
X160166666Y-51000000D01*
X160071428Y-50904761D01*
X159928571Y-50761904D01*
X159833333Y-50714285D01*
X159738095Y-50714285D01*
X159785714Y-50952380D02*
X159690476Y-50904761D01*
X159595238Y-50809523D01*
X159547619Y-50619047D01*
X159547619Y-50285714D01*
X159595238Y-50095238D01*
X159690476Y-50000000D01*
X159785714Y-49952380D01*
X159976190Y-49952380D01*
X160071428Y-50000000D01*
X160166666Y-50095238D01*
X160214285Y-50285714D01*
X160214285Y-50619047D01*
X160166666Y-50809523D01*
X160071428Y-50904761D01*
X159976190Y-50952380D01*
X159785714Y-50952380D01*
X57809523Y-94666666D02*
X58285714Y-94666666D01*
X57714285Y-94952380D02*
X58047619Y-93952380D01*
X58380952Y-94952380D01*
X58571428Y-93952380D02*
X59142857Y-93952380D01*
X58857142Y-94952380D02*
X58857142Y-93952380D01*
X59333333Y-93952380D02*
X59904761Y-93952380D01*
X59619047Y-94952380D02*
X59619047Y-93952380D01*
X60523809Y-95333333D02*
X60476190Y-95285714D01*
X60380952Y-95142857D01*
X60333333Y-95047619D01*
X60285714Y-94904761D01*
X60238095Y-94666666D01*
X60238095Y-94476190D01*
X60285714Y-94238095D01*
X60333333Y-94095238D01*
X60380952Y-94000000D01*
X60476190Y-93857142D01*
X60523809Y-93809523D01*
X60904761Y-94571428D02*
X61666666Y-94571428D01*
X61285714Y-94952380D02*
X61285714Y-94190476D01*
X62619047Y-93952380D02*
X62142857Y-93952380D01*
X62095238Y-94428571D01*
X62142857Y-94380952D01*
X62238095Y-94333333D01*
X62476190Y-94333333D01*
X62571428Y-94380952D01*
X62619047Y-94428571D01*
X62666666Y-94523809D01*
X62666666Y-94761904D01*
X62619047Y-94857142D01*
X62571428Y-94904761D01*
X62476190Y-94952380D01*
X62238095Y-94952380D01*
X62142857Y-94904761D01*
X62095238Y-94857142D01*
X62952380Y-93952380D02*
X63285714Y-94952380D01*
X63619047Y-93952380D01*
X63857142Y-95333333D02*
X63904761Y-95285714D01*
X64000000Y-95142857D01*
X64047619Y-95047619D01*
X64095238Y-94904761D01*
X64142857Y-94666666D01*
X64142857Y-94476190D01*
X64095238Y-94238095D01*
X64047619Y-94095238D01*
X64000000Y-94000000D01*
X63904761Y-93857142D01*
X63857142Y-93809523D01*
X92428571Y-78952380D02*
X92761904Y-79952380D01*
X93095238Y-78952380D01*
X94000000Y-79857142D02*
X93952380Y-79904761D01*
X93809523Y-79952380D01*
X93714285Y-79952380D01*
X93571428Y-79904761D01*
X93476190Y-79809523D01*
X93428571Y-79714285D01*
X93380952Y-79523809D01*
X93380952Y-79380952D01*
X93428571Y-79190476D01*
X93476190Y-79095238D01*
X93571428Y-79000000D01*
X93714285Y-78952380D01*
X93809523Y-78952380D01*
X93952380Y-79000000D01*
X94000000Y-79047619D01*
X94761904Y-79428571D02*
X94428571Y-79428571D01*
X94428571Y-79952380D02*
X94428571Y-78952380D01*
X94904761Y-78952380D01*
X96619047Y-79952380D02*
X96285714Y-79476190D01*
X96047619Y-79952380D02*
X96047619Y-78952380D01*
X96428571Y-78952380D01*
X96523809Y-79000000D01*
X96571428Y-79047619D01*
X96619047Y-79142857D01*
X96619047Y-79285714D01*
X96571428Y-79380952D01*
X96523809Y-79428571D01*
X96428571Y-79476190D01*
X96047619Y-79476190D01*
X97047619Y-79428571D02*
X97380952Y-79428571D01*
X97523809Y-79952380D02*
X97047619Y-79952380D01*
X97047619Y-78952380D01*
X97523809Y-78952380D01*
X97904761Y-79904761D02*
X98047619Y-79952380D01*
X98285714Y-79952380D01*
X98380952Y-79904761D01*
X98428571Y-79857142D01*
X98476190Y-79761904D01*
X98476190Y-79666666D01*
X98428571Y-79571428D01*
X98380952Y-79523809D01*
X98285714Y-79476190D01*
X98095238Y-79428571D01*
X98000000Y-79380952D01*
X97952380Y-79333333D01*
X97904761Y-79238095D01*
X97904761Y-79142857D01*
X97952380Y-79047619D01*
X98000000Y-79000000D01*
X98095238Y-78952380D01*
X98333333Y-78952380D01*
X98476190Y-79000000D01*
X139928571Y-43678571D02*
X140261904Y-43678571D01*
X140404761Y-44202380D02*
X139928571Y-44202380D01*
X139928571Y-43202380D01*
X140404761Y-43202380D01*
X140738095Y-43202380D02*
X141404761Y-44202380D01*
X141404761Y-43202380D02*
X140738095Y-44202380D01*
X141642857Y-43202380D02*
X142214285Y-43202380D01*
X141928571Y-44202380D02*
X141928571Y-43202380D01*
X60285714Y-124428571D02*
X60619047Y-124428571D01*
X60761904Y-124952380D02*
X60285714Y-124952380D01*
X60285714Y-123952380D01*
X60761904Y-123952380D01*
X61714285Y-124000000D02*
X61619047Y-123952380D01*
X61476190Y-123952380D01*
X61333333Y-124000000D01*
X61238095Y-124095238D01*
X61190476Y-124190476D01*
X61142857Y-124380952D01*
X61142857Y-124523809D01*
X61190476Y-124714285D01*
X61238095Y-124809523D01*
X61333333Y-124904761D01*
X61476190Y-124952380D01*
X61571428Y-124952380D01*
X61714285Y-124904761D01*
X61761904Y-124857142D01*
X61761904Y-124523809D01*
X61571428Y-124523809D01*
X95071428Y-49428571D02*
X94738095Y-49428571D01*
X94738095Y-49952380D02*
X94738095Y-48952380D01*
X95214285Y-48952380D01*
X95595238Y-49952380D02*
X95595238Y-48952380D01*
X95928571Y-49666666D01*
X96261904Y-48952380D01*
X96261904Y-49952380D01*
X236309523Y-46452380D02*
X235976190Y-45976190D01*
X235738095Y-46452380D02*
X235738095Y-45452380D01*
X236119047Y-45452380D01*
X236214285Y-45500000D01*
X236261904Y-45547619D01*
X236309523Y-45642857D01*
X236309523Y-45785714D01*
X236261904Y-45880952D01*
X236214285Y-45928571D01*
X236119047Y-45976190D01*
X235738095Y-45976190D01*
X228000000Y-32452380D02*
X228190476Y-32452380D01*
X228285714Y-32500000D01*
X228380952Y-32595238D01*
X228428571Y-32785714D01*
X228428571Y-33119047D01*
X228380952Y-33309523D01*
X228285714Y-33404761D01*
X228190476Y-33452380D01*
X228000000Y-33452380D01*
X227904761Y-33404761D01*
X227809523Y-33309523D01*
X227761904Y-33119047D01*
X227761904Y-32785714D01*
X227809523Y-32595238D01*
X227904761Y-32500000D01*
X228000000Y-32452380D01*
X228857142Y-32452380D02*
X228857142Y-33261904D01*
X228904761Y-33357142D01*
X228952380Y-33404761D01*
X229047619Y-33452380D01*
X229238095Y-33452380D01*
X229333333Y-33404761D01*
X229380952Y-33357142D01*
X229428571Y-33261904D01*
X229428571Y-32452380D01*
X229761904Y-32452380D02*
X230333333Y-32452380D01*
X230047619Y-33452380D02*
X230047619Y-32452380D01*
X94452380Y-94952380D02*
X94452380Y-93952380D01*
X94785714Y-94666666D01*
X95119047Y-93952380D01*
X95119047Y-94952380D01*
X95595238Y-94952380D02*
X95595238Y-93952380D01*
X95976190Y-93952380D02*
X96642857Y-94952380D01*
X96642857Y-93952380D02*
X95976190Y-94952380D01*
D11*
X124535714Y-100678571D02*
X123821428Y-100678571D01*
X123821428Y-99178571D01*
X125535714Y-99892857D02*
X125035714Y-99892857D01*
X125035714Y-100678571D02*
X125035714Y-99178571D01*
X125750000Y-99178571D01*
X126607142Y-99178571D02*
X126892857Y-99178571D01*
X127035714Y-99250000D01*
X127178571Y-99392857D01*
X127250000Y-99678571D01*
X127250000Y-100178571D01*
X127178571Y-100464285D01*
X127035714Y-100607142D01*
X126892857Y-100678571D01*
X126607142Y-100678571D01*
X126464285Y-100607142D01*
X126321428Y-100464285D01*
X126250000Y-100178571D01*
X126250000Y-99678571D01*
X126321428Y-99392857D01*
X126464285Y-99250000D01*
X126607142Y-99178571D01*
D10*
X70380952Y-109952380D02*
X70380952Y-108952380D01*
X70714285Y-109666666D01*
X71047619Y-108952380D01*
X71047619Y-109952380D01*
X71523809Y-108952380D02*
X71523809Y-109761904D01*
X71571428Y-109857142D01*
X71619047Y-109904761D01*
X71714285Y-109952380D01*
X71904761Y-109952380D01*
X72000000Y-109904761D01*
X72047619Y-109857142D01*
X72095238Y-109761904D01*
X72095238Y-108952380D01*
X73047619Y-109952380D02*
X72571428Y-109952380D01*
X72571428Y-108952380D01*
X73238095Y-108952380D02*
X73809523Y-108952380D01*
X73523809Y-109952380D02*
X73523809Y-108952380D01*
X74666666Y-109952380D02*
X74095238Y-109952380D01*
X74380952Y-109952380D02*
X74380952Y-108952380D01*
X74285714Y-109095238D01*
X74190476Y-109190476D01*
X74095238Y-109238095D01*
D11*
X156392857Y-70178571D02*
X156392857Y-68678571D01*
X156964285Y-68678571D01*
X157107142Y-68750000D01*
X157178571Y-68821428D01*
X157250000Y-68964285D01*
X157250000Y-69178571D01*
X157178571Y-69321428D01*
X157107142Y-69392857D01*
X156964285Y-69464285D01*
X156392857Y-69464285D01*
X157750000Y-68678571D02*
X158107142Y-70178571D01*
X158392857Y-69107142D01*
X158678571Y-70178571D01*
X159035714Y-68678571D01*
X159607142Y-70178571D02*
X159607142Y-68678571D01*
X160107142Y-69750000D01*
X160607142Y-68678571D01*
X160607142Y-70178571D01*
D10*
X79976190Y-64952380D02*
X79976190Y-63952380D01*
X79976190Y-64428571D02*
X80547619Y-64428571D01*
X80547619Y-64952380D02*
X80547619Y-63952380D01*
X80976190Y-64666666D02*
X81452380Y-64666666D01*
X80880952Y-64952380D02*
X81214285Y-63952380D01*
X81547619Y-64952380D01*
X82452380Y-64952380D02*
X82119047Y-64476190D01*
X81880952Y-64952380D02*
X81880952Y-63952380D01*
X82261904Y-63952380D01*
X82357142Y-64000000D01*
X82404761Y-64047619D01*
X82452380Y-64142857D01*
X82452380Y-64285714D01*
X82404761Y-64380952D01*
X82357142Y-64428571D01*
X82261904Y-64476190D01*
X81880952Y-64476190D01*
X82880952Y-64952380D02*
X82880952Y-63952380D01*
X83119047Y-63952380D01*
X83261904Y-64000000D01*
X83357142Y-64095238D01*
X83404761Y-64190476D01*
X83452380Y-64380952D01*
X83452380Y-64523809D01*
X83404761Y-64714285D01*
X83357142Y-64809523D01*
X83261904Y-64904761D01*
X83119047Y-64952380D01*
X82880952Y-64952380D01*
X84595238Y-64904761D02*
X84738095Y-64952380D01*
X84976190Y-64952380D01*
X85071428Y-64904761D01*
X85119047Y-64857142D01*
X85166666Y-64761904D01*
X85166666Y-64666666D01*
X85119047Y-64571428D01*
X85071428Y-64523809D01*
X84976190Y-64476190D01*
X84785714Y-64428571D01*
X84690476Y-64380952D01*
X84642857Y-64333333D01*
X84595238Y-64238095D01*
X84595238Y-64142857D01*
X84642857Y-64047619D01*
X84690476Y-64000000D01*
X84785714Y-63952380D01*
X85023809Y-63952380D01*
X85166666Y-64000000D01*
X85785714Y-64476190D02*
X85785714Y-64952380D01*
X85452380Y-63952380D02*
X85785714Y-64476190D01*
X86119047Y-63952380D01*
X86452380Y-64952380D02*
X86452380Y-63952380D01*
X87023809Y-64952380D01*
X87023809Y-63952380D01*
X88071428Y-64857142D02*
X88023809Y-64904761D01*
X87880952Y-64952380D01*
X87785714Y-64952380D01*
X87642857Y-64904761D01*
X87547619Y-64809523D01*
X87500000Y-64714285D01*
X87452380Y-64523809D01*
X87452380Y-64380952D01*
X87500000Y-64190476D01*
X87547619Y-64095238D01*
X87642857Y-64000000D01*
X87785714Y-63952380D01*
X87880952Y-63952380D01*
X88023809Y-64000000D01*
X88071428Y-64047619D01*
D11*
X158142857Y-111750000D02*
X158857142Y-111750000D01*
X158000000Y-112178571D02*
X158500000Y-110678571D01*
X159000000Y-112178571D01*
D10*
X59785714Y-79952380D02*
X59785714Y-78952380D01*
X60166666Y-78952380D01*
X60261904Y-79000000D01*
X60309523Y-79047619D01*
X60357142Y-79142857D01*
X60357142Y-79285714D01*
X60309523Y-79380952D01*
X60261904Y-79428571D01*
X60166666Y-79476190D01*
X59785714Y-79476190D01*
X60738095Y-79666666D02*
X61214285Y-79666666D01*
X60642857Y-79952380D02*
X60976190Y-78952380D01*
X61309523Y-79952380D01*
X61642857Y-79952380D02*
X61642857Y-78952380D01*
X62214285Y-79952380D01*
X62214285Y-78952380D01*
D11*
X179571428Y-70178571D02*
X179071428Y-69464285D01*
X178714285Y-70178571D02*
X178714285Y-68678571D01*
X179285714Y-68678571D01*
X179428571Y-68750000D01*
X179500000Y-68821428D01*
X179571428Y-68964285D01*
X179571428Y-69178571D01*
X179500000Y-69321428D01*
X179428571Y-69392857D01*
X179285714Y-69464285D01*
X178714285Y-69464285D01*
X180214285Y-69392857D02*
X180714285Y-69392857D01*
X180928571Y-70178571D02*
X180214285Y-70178571D01*
X180214285Y-68678571D01*
X180928571Y-68678571D01*
X181500000Y-70107142D02*
X181714285Y-70178571D01*
X182071428Y-70178571D01*
X182214285Y-70107142D01*
X182285714Y-70035714D01*
X182357142Y-69892857D01*
X182357142Y-69750000D01*
X182285714Y-69607142D01*
X182214285Y-69535714D01*
X182071428Y-69464285D01*
X181785714Y-69392857D01*
X181642857Y-69321428D01*
X181571428Y-69250000D01*
X181500000Y-69107142D01*
X181500000Y-68964285D01*
X181571428Y-68821428D01*
X181642857Y-68750000D01*
X181785714Y-68678571D01*
X182142857Y-68678571D01*
X182357142Y-68750000D01*
X135071428Y-112178571D02*
X134571428Y-111464285D01*
X134214285Y-112178571D02*
X134214285Y-110678571D01*
X134785714Y-110678571D01*
X134928571Y-110750000D01*
X135000000Y-110821428D01*
X135071428Y-110964285D01*
X135071428Y-111178571D01*
X135000000Y-111321428D01*
X134928571Y-111392857D01*
X134785714Y-111464285D01*
X134214285Y-111464285D01*
X135642857Y-111750000D02*
X136357142Y-111750000D01*
X135500000Y-112178571D02*
X136000000Y-110678571D01*
X136500000Y-112178571D01*
X136785714Y-110678571D02*
X137642857Y-110678571D01*
X137214285Y-112178571D02*
X137214285Y-110678571D01*
X138142857Y-111392857D02*
X138642857Y-111392857D01*
X138857142Y-112178571D02*
X138142857Y-112178571D01*
X138142857Y-110678571D01*
X138857142Y-110678571D01*
D10*
X147880952Y-50952380D02*
X147547619Y-50476190D01*
X147309523Y-50952380D02*
X147309523Y-49952380D01*
X147690476Y-49952380D01*
X147785714Y-50000000D01*
X147833333Y-50047619D01*
X147880952Y-50142857D01*
X147880952Y-50285714D01*
X147833333Y-50380952D01*
X147785714Y-50428571D01*
X147690476Y-50476190D01*
X147309523Y-50476190D01*
X148309523Y-50428571D02*
X148642857Y-50428571D01*
X148785714Y-50952380D02*
X148309523Y-50952380D01*
X148309523Y-49952380D01*
X148785714Y-49952380D01*
X149166666Y-50904761D02*
X149309523Y-50952380D01*
X149547619Y-50952380D01*
X149642857Y-50904761D01*
X149690476Y-50857142D01*
X149738095Y-50761904D01*
X149738095Y-50666666D01*
X149690476Y-50571428D01*
X149642857Y-50523809D01*
X149547619Y-50476190D01*
X149357142Y-50428571D01*
X149261904Y-50380952D01*
X149214285Y-50333333D01*
X149166666Y-50238095D01*
X149166666Y-50142857D01*
X149214285Y-50047619D01*
X149261904Y-50000000D01*
X149357142Y-49952380D01*
X149595238Y-49952380D01*
X149738095Y-50000000D01*
X60000000Y-109666666D02*
X60476190Y-109666666D01*
X59904761Y-109952380D02*
X60238095Y-108952380D01*
X60571428Y-109952380D01*
X60761904Y-108952380D02*
X61333333Y-108952380D01*
X61047619Y-109952380D02*
X61047619Y-108952380D01*
X61523809Y-108952380D02*
X62095238Y-108952380D01*
X61809523Y-109952380D02*
X61809523Y-108952380D01*
%TO.C,G\u002A\u002A\u002A*%
G36*
X181408541Y-119883969D02*
G01*
X181559012Y-120006372D01*
X181721535Y-120193402D01*
X181883022Y-120431173D01*
X181949876Y-120547374D01*
X182036582Y-120752235D01*
X182092450Y-120977549D01*
X182114504Y-121195168D01*
X182099764Y-121376945D01*
X182049609Y-121490083D01*
X182003320Y-121570798D01*
X181939331Y-121719087D01*
X181869422Y-121906967D01*
X181849650Y-121965083D01*
X181657171Y-122460640D01*
X181431932Y-122895936D01*
X181182345Y-123256123D01*
X181014072Y-123440027D01*
X180853124Y-123613120D01*
X180704487Y-123804085D01*
X180599914Y-123972061D01*
X180598680Y-123974525D01*
X180484251Y-124168697D01*
X180340367Y-124367440D01*
X180270427Y-124449411D01*
X180071347Y-124665083D01*
X180173319Y-124454574D01*
X180233853Y-124323549D01*
X180270396Y-124232762D01*
X180275292Y-124213238D01*
X180249967Y-124216803D01*
X180182361Y-124286902D01*
X180085022Y-124406444D01*
X179970500Y-124558334D01*
X179851342Y-124725481D01*
X179740099Y-124890792D01*
X179649320Y-125037173D01*
X179594821Y-125140083D01*
X179409621Y-125538612D01*
X179254421Y-125841852D01*
X179129171Y-126049888D01*
X179033819Y-126162808D01*
X178979076Y-126184728D01*
X178916682Y-126171435D01*
X178793614Y-126144298D01*
X178735140Y-126131261D01*
X178589168Y-126081966D01*
X178493575Y-126004008D01*
X178448384Y-125887460D01*
X178453616Y-125722394D01*
X178509292Y-125498880D01*
X178615434Y-125206990D01*
X178737782Y-124915083D01*
X178832378Y-124685802D01*
X178935285Y-124418322D01*
X179024546Y-124169750D01*
X179026137Y-124165083D01*
X179089134Y-123991755D01*
X179182938Y-123748875D01*
X179298674Y-123458683D01*
X179427470Y-123143417D01*
X179560451Y-122825317D01*
X179564785Y-122815083D01*
X179759687Y-122352050D01*
X179915024Y-121976007D01*
X180032330Y-121682778D01*
X180113139Y-121468186D01*
X180158984Y-121328056D01*
X180171397Y-121258214D01*
X180151914Y-121254483D01*
X180129432Y-121277583D01*
X180047517Y-121358497D01*
X179990397Y-121390083D01*
X179935957Y-121423332D01*
X179834194Y-121510772D01*
X179706498Y-121633938D01*
X179698412Y-121642129D01*
X179544462Y-121786476D01*
X179429930Y-121861888D01*
X179335726Y-121880529D01*
X179325719Y-121879629D01*
X179223828Y-121845809D01*
X179196678Y-121772657D01*
X179245783Y-121654028D01*
X179372660Y-121483775D01*
X179443463Y-121402154D01*
X179600296Y-121218778D01*
X179754871Y-121025540D01*
X179874942Y-120862819D01*
X179879544Y-120856086D01*
X179982547Y-120716031D01*
X180075536Y-120608732D01*
X180121856Y-120568765D01*
X180193040Y-120513934D01*
X180313249Y-120408922D01*
X180460059Y-120273513D01*
X180506206Y-120229664D01*
X180743841Y-120027139D01*
X180958498Y-119903061D01*
X181172013Y-119846483D01*
X181283212Y-119840083D01*
X181408541Y-119883969D01*
G37*
G36*
X180025292Y-124815083D02*
G01*
X180000292Y-124840083D01*
X179975292Y-124815083D01*
X180000292Y-124790083D01*
X180025292Y-124815083D01*
G37*
G36*
X174725292Y-126465083D02*
G01*
X174700292Y-126490083D01*
X174675292Y-126465083D01*
X174700292Y-126440083D01*
X174725292Y-126465083D01*
G37*
G36*
X174349912Y-117111181D02*
G01*
X174453691Y-117183968D01*
X174556423Y-117322678D01*
X174671475Y-117541545D01*
X174687485Y-117575454D01*
X174736511Y-117687589D01*
X174776728Y-117802033D01*
X174811041Y-117934595D01*
X174842356Y-118101081D01*
X174873580Y-118317301D01*
X174907618Y-118599061D01*
X174947377Y-118962170D01*
X174954183Y-119026230D01*
X174990742Y-119352120D01*
X175027252Y-119643082D01*
X175061614Y-119884912D01*
X175091726Y-120063405D01*
X175115489Y-120164357D01*
X175125069Y-120181675D01*
X175153052Y-120236746D01*
X175171284Y-120360391D01*
X175175292Y-120466298D01*
X175179822Y-120625639D01*
X175197559Y-120728576D01*
X175234719Y-120771130D01*
X175297517Y-120749321D01*
X175392171Y-120659170D01*
X175524897Y-120496697D01*
X175701911Y-120257921D01*
X175871634Y-120020510D01*
X176037859Y-119772325D01*
X176233695Y-119457438D01*
X176445313Y-119099218D01*
X176658885Y-118721035D01*
X176846772Y-118372589D01*
X177046728Y-117995821D01*
X177210685Y-117699474D01*
X177347050Y-117474373D01*
X177464231Y-117311341D01*
X177570638Y-117201201D01*
X177674677Y-117134776D01*
X177784758Y-117102891D01*
X177909288Y-117096368D01*
X178010889Y-117102085D01*
X178282868Y-117159011D01*
X178584491Y-117279565D01*
X178884803Y-117447826D01*
X179152850Y-117647875D01*
X179250292Y-117739511D01*
X179500292Y-117994664D01*
X179494308Y-118361134D01*
X179482315Y-118587510D01*
X179447799Y-118760952D01*
X179379819Y-118927852D01*
X179344472Y-118996343D01*
X179230470Y-119169791D01*
X179059389Y-119382127D01*
X178852656Y-119610293D01*
X178631695Y-119831230D01*
X178417932Y-120021879D01*
X178319860Y-120099074D01*
X178206069Y-120201653D01*
X178060794Y-120357661D01*
X177909989Y-120538667D01*
X177863407Y-120599074D01*
X177711889Y-120787578D01*
X177552719Y-120965651D01*
X177414206Y-121102114D01*
X177381512Y-121129799D01*
X177237313Y-121259521D01*
X177050694Y-121447952D01*
X176840087Y-121674449D01*
X176623926Y-121918368D01*
X176420643Y-122159067D01*
X176248671Y-122375901D01*
X176159868Y-122497952D01*
X175969628Y-122774171D01*
X176050682Y-123369627D01*
X176131055Y-123884465D01*
X176218695Y-124300910D01*
X176313908Y-124620326D01*
X176347245Y-124705154D01*
X176391176Y-124820509D01*
X176454861Y-125002485D01*
X176528360Y-125222213D01*
X176576227Y-125370158D01*
X176647094Y-125596045D01*
X176689277Y-125748374D01*
X176705326Y-125848582D01*
X176697792Y-125918110D01*
X176669225Y-125978396D01*
X176651836Y-126005708D01*
X176608616Y-126066174D01*
X176559298Y-126113270D01*
X176490631Y-126149690D01*
X176389363Y-126178129D01*
X176242244Y-126201281D01*
X176036024Y-126221841D01*
X175757450Y-126242503D01*
X175393273Y-126265962D01*
X175362470Y-126267889D01*
X174974648Y-126292125D01*
X174889511Y-126113592D01*
X174836778Y-125965717D01*
X174847954Y-125863777D01*
X174855311Y-125850070D01*
X174879545Y-125748111D01*
X174880706Y-125578526D01*
X174862490Y-125360544D01*
X174828590Y-125113394D01*
X174782702Y-124856304D01*
X174728519Y-124608504D01*
X174669737Y-124389221D01*
X174610050Y-124217686D01*
X174553152Y-124113127D01*
X174517154Y-124090083D01*
X174459464Y-124120409D01*
X174358656Y-124196921D01*
X174309227Y-124238945D01*
X174201702Y-124321339D01*
X174124869Y-124358405D01*
X174107487Y-124355611D01*
X174079577Y-124365238D01*
X174075292Y-124398033D01*
X174040579Y-124482887D01*
X173962792Y-124573355D01*
X173859946Y-124649532D01*
X173706686Y-124745199D01*
X173529111Y-124846186D01*
X173353323Y-124938323D01*
X173205422Y-125007441D01*
X173111511Y-125039371D01*
X173103060Y-125040083D01*
X173030337Y-125069392D01*
X172908774Y-125145831D01*
X172779781Y-125241245D01*
X172650709Y-125339490D01*
X172559132Y-125401980D01*
X172525292Y-125415229D01*
X172485893Y-125415850D01*
X172377280Y-125463553D01*
X172213828Y-125550532D01*
X172009912Y-125668979D01*
X171779906Y-125811086D01*
X171688998Y-125869443D01*
X171494231Y-125993888D01*
X171315264Y-126104875D01*
X171179120Y-126185790D01*
X171135264Y-126209926D01*
X171001926Y-126294902D01*
X170860802Y-126407194D01*
X170841991Y-126424334D01*
X170687836Y-126534482D01*
X170460773Y-126653498D01*
X170185891Y-126770327D01*
X169888276Y-126873914D01*
X169700292Y-126927426D01*
X169359868Y-127024207D01*
X169039542Y-127132035D01*
X168771317Y-127239728D01*
X168675292Y-127285601D01*
X168434832Y-127381808D01*
X168195918Y-127409918D01*
X168062792Y-127402341D01*
X167935319Y-127383035D01*
X167885496Y-127342300D01*
X167902990Y-127256223D01*
X167953337Y-127149001D01*
X168024478Y-127035732D01*
X168124947Y-126937786D01*
X168271838Y-126844057D01*
X168482242Y-126743439D01*
X168740249Y-126637731D01*
X168872799Y-126582798D01*
X169005720Y-126520301D01*
X169147592Y-126444498D01*
X169306997Y-126349647D01*
X169492514Y-126230006D01*
X169712724Y-126079834D01*
X169976209Y-125893388D01*
X170291549Y-125664927D01*
X170667324Y-125388709D01*
X171112115Y-125058992D01*
X171225292Y-124974830D01*
X171539066Y-124737188D01*
X171820442Y-124513536D01*
X172088313Y-124287257D01*
X172361572Y-124041733D01*
X172659112Y-123760349D01*
X172999827Y-123426486D01*
X173107411Y-123319469D01*
X173371884Y-123053082D01*
X173615653Y-122802547D01*
X173828813Y-122578439D01*
X174001459Y-122391335D01*
X174123688Y-122251810D01*
X174185596Y-122170439D01*
X174188502Y-122165083D01*
X174218454Y-122090053D01*
X174234726Y-122001029D01*
X174237500Y-121877920D01*
X174226961Y-121700631D01*
X174203292Y-121449071D01*
X174195715Y-121375773D01*
X174168293Y-121131060D01*
X174141319Y-120921631D01*
X174117690Y-120768026D01*
X174100301Y-120690787D01*
X174098668Y-120687456D01*
X174085240Y-120622424D01*
X174068689Y-120476496D01*
X174050765Y-120268660D01*
X174033218Y-120017900D01*
X174026234Y-119901765D01*
X174005496Y-119564642D01*
X173979169Y-119173722D01*
X173950458Y-118774821D01*
X173922569Y-118413753D01*
X173919401Y-118374798D01*
X173895232Y-118056070D01*
X173882597Y-117822495D01*
X173881426Y-117659901D01*
X173891648Y-117554118D01*
X173913194Y-117490972D01*
X173915003Y-117487976D01*
X173964534Y-117369524D01*
X173975292Y-117300761D01*
X174017814Y-117173362D01*
X174136058Y-117101644D01*
X174231720Y-117090083D01*
X174349912Y-117111181D01*
G37*
G36*
X180075292Y-124715083D02*
G01*
X180050292Y-124740083D01*
X180025292Y-124715083D01*
X180050292Y-124690083D01*
X180075292Y-124715083D01*
G37*
G36*
X147102660Y-119599391D02*
G01*
X147108349Y-119680200D01*
X147113139Y-119814353D01*
X147117022Y-120001419D01*
X147119989Y-120240966D01*
X147122034Y-120532562D01*
X147123149Y-120875774D01*
X147123372Y-121141933D01*
X147123372Y-122711507D01*
X146933618Y-122823465D01*
X146933618Y-122280923D01*
X146933430Y-122096476D01*
X146932320Y-121958459D01*
X146929466Y-121859091D01*
X146924043Y-121790587D01*
X146915231Y-121745162D01*
X146902208Y-121715034D01*
X146884150Y-121692418D01*
X146869995Y-121678689D01*
X146836004Y-121645304D01*
X146769082Y-121578277D01*
X146674247Y-121482680D01*
X146556518Y-121363590D01*
X146420916Y-121226080D01*
X146272458Y-121075226D01*
X146175735Y-120976787D01*
X145545097Y-120334577D01*
X146306940Y-119953468D01*
X146494996Y-119859813D01*
X146667901Y-119774508D01*
X146819600Y-119700476D01*
X146944038Y-119640641D01*
X147035159Y-119597928D01*
X147086909Y-119575262D01*
X147096077Y-119572359D01*
X147102660Y-119599391D01*
G37*
G36*
X144358449Y-119152260D02*
G01*
X144954893Y-119748241D01*
X144378780Y-120038359D01*
X144216230Y-120119862D01*
X144069737Y-120192636D01*
X143946249Y-120253288D01*
X143852711Y-120298421D01*
X143796072Y-120324638D01*
X143782337Y-120329927D01*
X143777454Y-120304234D01*
X143772993Y-120230655D01*
X143769097Y-120115518D01*
X143765914Y-119965152D01*
X143763587Y-119785886D01*
X143762261Y-119584048D01*
X143762006Y-119443828D01*
X143762006Y-118556280D01*
X144358449Y-119152260D01*
G37*
G36*
X160721478Y-120187193D02*
G01*
X160778372Y-120239423D01*
X160863616Y-120320679D01*
X160972301Y-120426219D01*
X161099520Y-120551305D01*
X161240365Y-120691195D01*
X161287193Y-120737994D01*
X161431321Y-120881591D01*
X161563357Y-121011891D01*
X161678400Y-121124156D01*
X161771545Y-121213645D01*
X161837888Y-121275617D01*
X161872527Y-121305334D01*
X161876104Y-121307257D01*
X161904511Y-121295781D01*
X161975625Y-121263243D01*
X162083488Y-121212479D01*
X162222141Y-121146325D01*
X162385628Y-121067615D01*
X162567989Y-120979186D01*
X162675116Y-120926976D01*
X163453995Y-120546694D01*
X165413209Y-122505356D01*
X166193987Y-122123169D01*
X166384593Y-122030208D01*
X166559795Y-121945413D01*
X166713617Y-121871622D01*
X166840087Y-121811678D01*
X166933230Y-121768418D01*
X166987073Y-121744685D01*
X166997846Y-121740982D01*
X167001933Y-121767295D01*
X167005553Y-121843056D01*
X167008657Y-121963501D01*
X167011197Y-122123863D01*
X167013124Y-122319377D01*
X167014389Y-122545279D01*
X167014943Y-122796802D01*
X167014738Y-123069181D01*
X167013932Y-123313085D01*
X167006937Y-124885188D01*
X166211725Y-125278185D01*
X165416514Y-125671182D01*
X164528725Y-124790288D01*
X163640936Y-123909395D01*
X162865415Y-124289009D01*
X162675493Y-124381640D01*
X162501016Y-124466098D01*
X162347974Y-124539532D01*
X162222358Y-124599093D01*
X162130157Y-124641932D01*
X162077363Y-124665200D01*
X162067345Y-124668623D01*
X162043650Y-124650079D01*
X161986267Y-124597327D01*
X161899650Y-124514690D01*
X161788253Y-124406494D01*
X161656528Y-124277059D01*
X161508929Y-124130711D01*
X161361032Y-123982930D01*
X160677268Y-123297236D01*
X160677268Y-121732983D01*
X160677614Y-121447377D01*
X160678610Y-121178596D01*
X160680193Y-120931418D01*
X160682302Y-120710620D01*
X160684871Y-120520981D01*
X160687840Y-120367277D01*
X160691145Y-120254286D01*
X160694723Y-120186785D01*
X160697840Y-120168730D01*
X160721478Y-120187193D01*
G37*
G36*
X150594706Y-123299680D02*
G01*
X151332625Y-122926526D01*
X151518448Y-122832384D01*
X151689772Y-122745258D01*
X151840286Y-122668381D01*
X151963684Y-122604988D01*
X152053655Y-122558312D01*
X152103892Y-122531589D01*
X152111206Y-122527367D01*
X152116057Y-122512732D01*
X152102156Y-122483292D01*
X152066329Y-122435478D01*
X152005402Y-122365720D01*
X151916201Y-122270449D01*
X151795552Y-122146096D01*
X151640283Y-121989090D01*
X151569286Y-121917864D01*
X151426103Y-121773170D01*
X151298283Y-121641508D01*
X151190105Y-121527488D01*
X151105846Y-121435718D01*
X151049785Y-121370806D01*
X151026198Y-121337360D01*
X151027130Y-121333801D01*
X151061219Y-121337470D01*
X151143673Y-121348215D01*
X151269209Y-121365294D01*
X151432544Y-121387969D01*
X151628393Y-121415500D01*
X151851473Y-121447148D01*
X152096501Y-121482173D01*
X152358192Y-121519836D01*
X152409391Y-121527234D01*
X153751227Y-121721231D01*
X154544130Y-121324399D01*
X155337033Y-120927568D01*
X155336560Y-122506687D01*
X155336086Y-124085806D01*
X153762398Y-124890032D01*
X153023644Y-124792882D01*
X152826888Y-124767286D01*
X152645487Y-124744216D01*
X152487059Y-124724599D01*
X152359224Y-124709362D01*
X152269600Y-124699432D01*
X152225807Y-124695736D01*
X152225156Y-124695731D01*
X152203935Y-124697132D01*
X152188450Y-124706254D01*
X152177795Y-124730476D01*
X152171070Y-124777174D01*
X152167369Y-124853727D01*
X152165789Y-124967514D01*
X152165427Y-125125911D01*
X152165421Y-125183581D01*
X152165421Y-125671431D01*
X150602209Y-126453397D01*
X149025437Y-124876452D01*
X147448666Y-123299508D01*
X147448666Y-120155352D01*
X150594706Y-123299680D01*
G37*
G36*
X124069623Y-120187450D02*
G01*
X124126868Y-120241714D01*
X124216630Y-120328676D01*
X124336028Y-120445491D01*
X124482178Y-120589312D01*
X124652197Y-120757294D01*
X124843203Y-120946591D01*
X125052314Y-121154359D01*
X125276645Y-121377751D01*
X125513316Y-121613922D01*
X125633594Y-121734127D01*
X127199165Y-123299524D01*
X129544021Y-122127190D01*
X129877306Y-121960699D01*
X130197008Y-121801263D01*
X130499777Y-121650536D01*
X130782265Y-121510174D01*
X131041121Y-121381833D01*
X131272995Y-121267168D01*
X131474538Y-121167834D01*
X131642401Y-121085487D01*
X131773233Y-121021783D01*
X131863685Y-120978376D01*
X131910407Y-120956922D01*
X131916163Y-120954856D01*
X131922677Y-120981913D01*
X131928036Y-121062909D01*
X131932236Y-121197576D01*
X131935275Y-121385650D01*
X131937148Y-121626864D01*
X131937852Y-121920954D01*
X131937384Y-122267654D01*
X131936452Y-122520331D01*
X131929455Y-124085806D01*
X129571078Y-125270325D01*
X129237262Y-125437932D01*
X128917251Y-125598499D01*
X128614356Y-125750372D01*
X128331889Y-125891894D01*
X128073162Y-126021410D01*
X127841485Y-126137265D01*
X127640171Y-126237802D01*
X127472532Y-126321366D01*
X127341878Y-126386302D01*
X127251522Y-126430954D01*
X127204776Y-126453667D01*
X127198832Y-126456291D01*
X127177995Y-126437795D01*
X127121728Y-126383740D01*
X127032888Y-126296956D01*
X126914328Y-126180272D01*
X126768905Y-126036516D01*
X126599473Y-125868519D01*
X126408887Y-125679109D01*
X126200003Y-125471115D01*
X125975675Y-125247367D01*
X125738759Y-125010695D01*
X125606249Y-124878167D01*
X124027534Y-123298595D01*
X124027534Y-121733663D01*
X124027875Y-121447993D01*
X124028855Y-121179147D01*
X124030412Y-120931902D01*
X124032486Y-120711035D01*
X124035014Y-120521321D01*
X124037934Y-120367538D01*
X124041185Y-120254461D01*
X124044704Y-120186868D01*
X124047778Y-120168730D01*
X124069623Y-120187450D01*
G37*
G36*
X137635645Y-120724440D02*
G01*
X137716255Y-120806402D01*
X137779855Y-120874817D01*
X137818093Y-120920486D01*
X137825400Y-120933408D01*
X137803175Y-120954489D01*
X137746523Y-120989897D01*
X137670482Y-121031759D01*
X137590088Y-121072203D01*
X137520376Y-121103357D01*
X137476383Y-121117349D01*
X137473772Y-121117503D01*
X137460603Y-121091347D01*
X137451338Y-121016478D01*
X137446494Y-120898290D01*
X137445891Y-120826821D01*
X137445891Y-120536139D01*
X137635645Y-120724440D01*
G37*
G36*
X152963379Y-118622453D02*
G01*
X152968155Y-118695844D01*
X152972248Y-118809853D01*
X152975478Y-118957684D01*
X152977664Y-119132537D01*
X152978625Y-119327615D01*
X152978655Y-119369050D01*
X152978655Y-120141622D01*
X152165545Y-120141622D01*
X152551548Y-119369050D01*
X152646220Y-119180811D01*
X152733750Y-119009147D01*
X152811100Y-118859830D01*
X152875234Y-118738632D01*
X152923113Y-118651326D01*
X152951701Y-118603684D01*
X152958103Y-118596478D01*
X152963379Y-118622453D01*
G37*
G36*
X142379422Y-121916783D02*
G01*
X143152162Y-121530697D01*
X143341930Y-121436392D01*
X143516889Y-121350420D01*
X143670967Y-121275690D01*
X143798094Y-121215107D01*
X143892197Y-121171579D01*
X143947207Y-121148013D01*
X143958466Y-121144611D01*
X143984798Y-121163155D01*
X144044706Y-121215893D01*
X144133630Y-121298481D01*
X144247012Y-121406579D01*
X144380293Y-121535842D01*
X144528912Y-121681930D01*
X144672375Y-121824562D01*
X145352718Y-122504513D01*
X146119009Y-122121179D01*
X146306657Y-122027799D01*
X146478331Y-121943310D01*
X146628168Y-121870523D01*
X146750303Y-121812250D01*
X146838870Y-121771304D01*
X146888004Y-121750497D01*
X146896047Y-121748591D01*
X146898121Y-121776905D01*
X146900288Y-121854617D01*
X146902497Y-121976911D01*
X146904693Y-122138969D01*
X146906825Y-122335975D01*
X146908838Y-122563111D01*
X146910680Y-122815562D01*
X146912298Y-123088510D01*
X146913429Y-123326449D01*
X146920064Y-124893560D01*
X145340428Y-125664622D01*
X144655203Y-124979002D01*
X143969977Y-124293381D01*
X143183942Y-124686580D01*
X142397906Y-125079778D01*
X140617502Y-123299988D01*
X140617502Y-120155489D01*
X142379422Y-121916783D01*
G37*
G36*
X166594056Y-119002962D02*
G01*
X166600372Y-119083375D01*
X166605502Y-119216464D01*
X166609427Y-119401463D01*
X166612131Y-119637608D01*
X166613595Y-119924136D01*
X166613874Y-120141622D01*
X166613413Y-120387108D01*
X166612096Y-120615011D01*
X166610019Y-120819797D01*
X166607281Y-120995932D01*
X166603979Y-121137882D01*
X166600209Y-121240112D01*
X166596070Y-121297087D01*
X166593365Y-121307257D01*
X166570364Y-121288699D01*
X166513327Y-121235733D01*
X166426418Y-121152419D01*
X166313802Y-121042821D01*
X166179645Y-120910999D01*
X166028111Y-120761015D01*
X165863365Y-120596931D01*
X165800462Y-120534028D01*
X165602877Y-120335662D01*
X165441237Y-120171964D01*
X165312649Y-120039771D01*
X165214225Y-119935918D01*
X165143074Y-119857242D01*
X165096305Y-119800578D01*
X165071028Y-119762764D01*
X165064352Y-119740636D01*
X165068730Y-119733088D01*
X165108068Y-119710561D01*
X165186830Y-119668849D01*
X165297777Y-119611562D01*
X165433674Y-119542309D01*
X165587284Y-119464700D01*
X165751370Y-119382345D01*
X165918695Y-119298853D01*
X166082022Y-119217834D01*
X166234115Y-119142899D01*
X166367737Y-119077656D01*
X166475651Y-119025715D01*
X166550621Y-118990686D01*
X166585410Y-118976178D01*
X166586572Y-118975987D01*
X166594056Y-119002962D01*
G37*
G36*
X121242860Y-119647857D02*
G01*
X121539553Y-119944551D01*
X120761301Y-120341272D01*
X120571839Y-120437524D01*
X120397717Y-120525352D01*
X120244830Y-120601832D01*
X120119077Y-120664038D01*
X120026354Y-120709047D01*
X119972556Y-120733933D01*
X119961515Y-120737994D01*
X119936134Y-120719381D01*
X119880816Y-120668176D01*
X119802715Y-120591326D01*
X119708988Y-120495779D01*
X119666041Y-120451073D01*
X119569266Y-120348529D01*
X119487497Y-120259628D01*
X119427359Y-120191752D01*
X119395475Y-120152280D01*
X119392102Y-120145889D01*
X119415443Y-120129790D01*
X119481631Y-120092673D01*
X119584913Y-120037546D01*
X119719535Y-119967420D01*
X119879745Y-119885305D01*
X120059788Y-119794209D01*
X120169134Y-119739395D01*
X120946166Y-119351164D01*
X121242860Y-119647857D01*
G37*
G36*
X135485250Y-123290628D02*
G01*
X137848068Y-122109157D01*
X140210885Y-120927687D01*
X140210885Y-124099298D01*
X137852569Y-125278518D01*
X137518776Y-125445388D01*
X137198925Y-125605221D01*
X136896321Y-125756368D01*
X136614266Y-125897184D01*
X136356064Y-126026020D01*
X136125020Y-126141230D01*
X135924435Y-126241166D01*
X135757615Y-126324183D01*
X135627862Y-126388632D01*
X135538481Y-126432867D01*
X135492774Y-126455240D01*
X135487328Y-126457738D01*
X135467560Y-126439031D01*
X135412318Y-126384797D01*
X135324445Y-126297865D01*
X135206781Y-126181065D01*
X135062169Y-126037226D01*
X134893450Y-125869179D01*
X134703467Y-125679753D01*
X134495060Y-125471778D01*
X134271072Y-125248083D01*
X134034345Y-125011497D01*
X133901460Y-124878623D01*
X132322518Y-123299508D01*
X132322518Y-120128242D01*
X135485250Y-123290628D01*
G37*
G36*
X158879354Y-123290708D02*
G01*
X159669880Y-122895264D01*
X160460405Y-122499819D01*
X160460405Y-125671431D01*
X159674460Y-126064584D01*
X159484417Y-126159545D01*
X159310497Y-126246248D01*
X159158465Y-126321836D01*
X159034086Y-126383450D01*
X158943126Y-126428232D01*
X158891349Y-126453323D01*
X158881470Y-126457738D01*
X158861684Y-126439031D01*
X158806424Y-126384796D01*
X158718534Y-126297863D01*
X158600854Y-126181062D01*
X158456228Y-126037223D01*
X158287496Y-125869175D01*
X158097501Y-125679747D01*
X157889085Y-125471771D01*
X157665090Y-125248074D01*
X157428359Y-125011487D01*
X157295484Y-124878623D01*
X155716542Y-123299508D01*
X155716542Y-120128242D01*
X158879354Y-123290708D01*
G37*
G36*
X123691074Y-119788429D02*
G01*
X123693409Y-119864205D01*
X123695557Y-119984687D01*
X123697479Y-120145120D01*
X123699132Y-120340751D01*
X123700475Y-120566823D01*
X123701468Y-120818583D01*
X123702069Y-121091275D01*
X123702241Y-121341443D01*
X123702241Y-122920773D01*
X122726360Y-123408111D01*
X121750480Y-123895449D01*
X121749931Y-124776753D01*
X121749382Y-125658058D01*
X120966579Y-126057898D01*
X120777187Y-126154489D01*
X120603718Y-126242679D01*
X120451933Y-126319560D01*
X120327599Y-126382223D01*
X120236479Y-126427760D01*
X120184338Y-126453262D01*
X120174138Y-126457738D01*
X120153950Y-126439027D01*
X120098301Y-126384783D01*
X120010040Y-126297835D01*
X119892012Y-126181015D01*
X119747066Y-126037152D01*
X119578049Y-125869077D01*
X119387809Y-125679620D01*
X119179193Y-125471613D01*
X118955048Y-125247885D01*
X118718221Y-125011266D01*
X118585558Y-124878623D01*
X117006617Y-123299508D01*
X117006617Y-120128242D01*
X118587919Y-121709372D01*
X120169222Y-123290502D01*
X121723366Y-122514000D01*
X121135019Y-121925197D01*
X120989665Y-121778983D01*
X120858159Y-121645259D01*
X120745032Y-121528748D01*
X120654815Y-121434172D01*
X120592041Y-121366256D01*
X120561241Y-121329722D01*
X120558982Y-121324809D01*
X120585151Y-121310574D01*
X120654780Y-121274765D01*
X120762909Y-121219858D01*
X120904577Y-121148330D01*
X121074822Y-121062659D01*
X121268683Y-120965322D01*
X121481200Y-120858796D01*
X121707410Y-120745557D01*
X121942354Y-120628085D01*
X122181070Y-120508855D01*
X122418597Y-120390344D01*
X122649974Y-120275031D01*
X122870239Y-120165391D01*
X123074433Y-120063903D01*
X123257593Y-119973043D01*
X123414759Y-119895290D01*
X123540969Y-119833118D01*
X123631263Y-119789007D01*
X123680679Y-119765434D01*
X123688593Y-119762113D01*
X123691074Y-119788429D01*
G37*
G36*
X128775739Y-120132408D02*
G01*
X128944830Y-120301754D01*
X129101352Y-120459151D01*
X129241272Y-120600495D01*
X129360559Y-120721685D01*
X129455182Y-120818619D01*
X129521109Y-120887196D01*
X129554308Y-120923314D01*
X129557524Y-120927794D01*
X129534365Y-120942617D01*
X129469555Y-120977850D01*
X129370096Y-121029976D01*
X129242989Y-121095481D01*
X129095235Y-121170852D01*
X128933835Y-121252571D01*
X128765790Y-121337126D01*
X128598101Y-121421001D01*
X128437769Y-121500680D01*
X128291796Y-121572650D01*
X128167183Y-121633396D01*
X128070930Y-121679402D01*
X128010039Y-121707154D01*
X127991749Y-121713874D01*
X127968797Y-121695318D01*
X127911763Y-121642339D01*
X127824783Y-121558967D01*
X127711990Y-121449234D01*
X127577520Y-121317173D01*
X127425508Y-121166815D01*
X127260089Y-121002192D01*
X127187853Y-120930010D01*
X126404338Y-120146146D01*
X127199146Y-119748559D01*
X127993955Y-119350972D01*
X128775739Y-120132408D01*
G37*
%TD*%
M02*
