%TF.GenerationSoftware,KiCad,Pcbnew,6.0.6-3a73a75311~116~ubuntu21.10.1*%
%TF.CreationDate,2022-09-23T00:08:08+02:00*%
%TF.ProjectId,frontpanel,66726f6e-7470-4616-9e65-6c2e6b696361,v0.0.1*%
%TF.SameCoordinates,Original*%
%TF.FileFunction,Profile,NP*%
%FSLAX46Y46*%
G04 Gerber Fmt 4.6, Leading zero omitted, Abs format (unit mm)*
G04 Created by KiCad (PCBNEW 6.0.6-3a73a75311~116~ubuntu21.10.1) date 2022-09-23 00:08:08*
%MOMM*%
%LPD*%
G01*
G04 APERTURE LIST*
%TA.AperFunction,Profile*%
%ADD10C,0.150000*%
%TD*%
%TA.AperFunction,Profile*%
%ADD11C,0.100000*%
%TD*%
G04 APERTURE END LIST*
D10*
X161740000Y-43700000D02*
G75*
G03*
X161740000Y-43700000I-3250000J0D01*
G01*
D11*
X64250000Y-43220000D02*
G75*
G03*
X64250000Y-43220000I-3250000J0D01*
G01*
X75750000Y-58220000D02*
G75*
G03*
X75750000Y-58220000I-3250000J0D01*
G01*
X75750000Y-43220000D02*
G75*
G03*
X75750000Y-43220000I-3250000J0D01*
G01*
X108100000Y-43200000D02*
G75*
G03*
X108100000Y-43200000I-2600000J0D01*
G01*
D10*
X185740000Y-43700000D02*
G75*
G03*
X185740000Y-43700000I-3250000J0D01*
G01*
D11*
X87250000Y-103220000D02*
G75*
G03*
X87250000Y-103220000I-3250000J0D01*
G01*
X75750000Y-103220000D02*
G75*
G03*
X75750000Y-103220000I-3250000J0D01*
G01*
X75750000Y-118220000D02*
G75*
G03*
X75750000Y-118220000I-3250000J0D01*
G01*
D10*
X206250000Y-62080000D02*
G75*
G03*
X206250000Y-62080000I-3750000J0D01*
G01*
X127740000Y-43700000D02*
G75*
G03*
X127740000Y-43700000I-3250000J0D01*
G01*
D11*
X64250000Y-58220000D02*
G75*
G03*
X64250000Y-58220000I-3250000J0D01*
G01*
X98750000Y-88220000D02*
G75*
G03*
X98750000Y-88220000I-3250000J0D01*
G01*
X87250000Y-88220000D02*
G75*
G03*
X87250000Y-88220000I-3250000J0D01*
G01*
D10*
X162250000Y-104080000D02*
G75*
G03*
X162250000Y-104080000I-3750000J0D01*
G01*
D11*
X64250000Y-103220000D02*
G75*
G03*
X64250000Y-103220000I-3250000J0D01*
G01*
D10*
X118250000Y-104080000D02*
G75*
G03*
X118250000Y-104080000I-3750000J0D01*
G01*
X118250000Y-83080000D02*
G75*
G03*
X118250000Y-83080000I-3750000J0D01*
G01*
D11*
X64250000Y-118220000D02*
G75*
G03*
X64250000Y-118220000I-3250000J0D01*
G01*
X98750000Y-58220000D02*
G75*
G03*
X98750000Y-58220000I-3250000J0D01*
G01*
X98750000Y-73220000D02*
G75*
G03*
X98750000Y-73220000I-3250000J0D01*
G01*
X50000000Y-130000000D02*
X50000000Y-30000000D01*
D10*
X227250000Y-104080000D02*
G75*
G03*
X227250000Y-104080000I-3750000J0D01*
G01*
X140250000Y-104080000D02*
G75*
G03*
X140250000Y-104080000I-3750000J0D01*
G01*
X175740000Y-43700000D02*
G75*
G03*
X175740000Y-43700000I-3250000J0D01*
G01*
X184250000Y-62080000D02*
G75*
G03*
X184250000Y-62080000I-3750000J0D01*
G01*
X227250000Y-62080000D02*
G75*
G03*
X227250000Y-62080000I-3750000J0D01*
G01*
D11*
X98750000Y-103220000D02*
G75*
G03*
X98750000Y-103220000I-3250000J0D01*
G01*
X250000000Y-130000000D02*
X50000000Y-130000000D01*
X50000000Y-30000000D02*
X250000000Y-30000000D01*
X75750000Y-73220000D02*
G75*
G03*
X75750000Y-73220000I-3250000J0D01*
G01*
D10*
X184250000Y-104080000D02*
G75*
G03*
X184250000Y-104080000I-3750000J0D01*
G01*
X140250000Y-83080000D02*
G75*
G03*
X140250000Y-83080000I-3750000J0D01*
G01*
X140250000Y-62080000D02*
G75*
G03*
X140250000Y-62080000I-3750000J0D01*
G01*
D11*
X87250000Y-118220000D02*
G75*
G03*
X87250000Y-118220000I-3250000J0D01*
G01*
X98750000Y-118220000D02*
G75*
G03*
X98750000Y-118220000I-3250000J0D01*
G01*
X64250000Y-88220000D02*
G75*
G03*
X64250000Y-88220000I-3250000J0D01*
G01*
D10*
X162250000Y-83080000D02*
G75*
G03*
X162250000Y-83080000I-3750000J0D01*
G01*
X137740000Y-43700000D02*
G75*
G03*
X137740000Y-43700000I-3250000J0D01*
G01*
X162250000Y-62080000D02*
G75*
G03*
X162250000Y-62080000I-3750000J0D01*
G01*
X206250000Y-104080000D02*
G75*
G03*
X206250000Y-104080000I-3750000J0D01*
G01*
D11*
X225250000Y-39220000D02*
G75*
G03*
X225250000Y-39220000I-3250000J0D01*
G01*
X239250000Y-39220000D02*
G75*
G03*
X239250000Y-39220000I-3250000J0D01*
G01*
X87250000Y-43220000D02*
G75*
G03*
X87250000Y-43220000I-3250000J0D01*
G01*
D10*
X151740000Y-43700000D02*
G75*
G03*
X151740000Y-43700000I-3250000J0D01*
G01*
X118250000Y-62080000D02*
G75*
G03*
X118250000Y-62080000I-3750000J0D01*
G01*
D11*
X87250000Y-73220000D02*
G75*
G03*
X87250000Y-73220000I-3250000J0D01*
G01*
X128100000Y-95180000D02*
G75*
G03*
X128100000Y-95180000I-2600000J0D01*
G01*
X87250000Y-58220000D02*
G75*
G03*
X87250000Y-58220000I-3250000J0D01*
G01*
X64250000Y-73220000D02*
G75*
G03*
X64250000Y-73220000I-3250000J0D01*
G01*
D10*
X195740000Y-43700000D02*
G75*
G03*
X195740000Y-43700000I-3250000J0D01*
G01*
D11*
X75750000Y-88220000D02*
G75*
G03*
X75750000Y-88220000I-3250000J0D01*
G01*
X98750000Y-43220000D02*
G75*
G03*
X98750000Y-43220000I-3250000J0D01*
G01*
X250000000Y-30000000D02*
X250000000Y-130000000D01*
M02*
