%TF.GenerationSoftware,KiCad,Pcbnew,6.0.6-3a73a75311~116~ubuntu21.10.1*%
%TF.CreationDate,2022-09-23T00:08:08+02:00*%
%TF.ProjectId,frontpanel,66726f6e-7470-4616-9e65-6c2e6b696361,v0.0.1*%
%TF.SameCoordinates,Original*%
%TF.FileFunction,Legend,Bot*%
%TF.FilePolarity,Positive*%
%FSLAX46Y46*%
G04 Gerber Fmt 4.6, Leading zero omitted, Abs format (unit mm)*
G04 Created by KiCad (PCBNEW 6.0.6-3a73a75311~116~ubuntu21.10.1) date 2022-09-23 00:08:08*
%MOMM*%
%LPD*%
G01*
G04 APERTURE LIST*
%ADD10C,0.150000*%
%ADD11C,0.250000*%
G04 APERTURE END LIST*
D10*
X239619047Y-123952380D02*
X239619047Y-124666666D01*
X239666666Y-124809523D01*
X239761904Y-124904761D01*
X239904761Y-124952380D01*
X240000000Y-124952380D01*
X238666666Y-124952380D02*
X239142857Y-124952380D01*
X239142857Y-123952380D01*
X237761904Y-124857142D02*
X237809523Y-124904761D01*
X237952380Y-124952380D01*
X238047619Y-124952380D01*
X238190476Y-124904761D01*
X238285714Y-124809523D01*
X238333333Y-124714285D01*
X238380952Y-124523809D01*
X238380952Y-124380952D01*
X238333333Y-124190476D01*
X238285714Y-124095238D01*
X238190476Y-124000000D01*
X238047619Y-123952380D01*
X237952380Y-123952380D01*
X237809523Y-124000000D01*
X237761904Y-124047619D01*
X237047619Y-123952380D02*
X237047619Y-124666666D01*
X237095238Y-124809523D01*
X237190476Y-124904761D01*
X237333333Y-124952380D01*
X237428571Y-124952380D01*
X236095238Y-124952380D02*
X236571428Y-124952380D01*
X236571428Y-123952380D01*
X235190476Y-124857142D02*
X235238095Y-124904761D01*
X235380952Y-124952380D01*
X235476190Y-124952380D01*
X235619047Y-124904761D01*
X235714285Y-124809523D01*
X235761904Y-124714285D01*
X235809523Y-124523809D01*
X235809523Y-124380952D01*
X235761904Y-124190476D01*
X235714285Y-124095238D01*
X235619047Y-124000000D01*
X235476190Y-123952380D01*
X235380952Y-123952380D01*
X235238095Y-124000000D01*
X235190476Y-124047619D01*
X234476190Y-123952380D02*
X234476190Y-124666666D01*
X234523809Y-124809523D01*
X234619047Y-124904761D01*
X234761904Y-124952380D01*
X234857142Y-124952380D01*
X233523809Y-124952380D02*
X234000000Y-124952380D01*
X234000000Y-123952380D01*
X232619047Y-124857142D02*
X232666666Y-124904761D01*
X232809523Y-124952380D01*
X232904761Y-124952380D01*
X233047619Y-124904761D01*
X233142857Y-124809523D01*
X233190476Y-124714285D01*
X233238095Y-124523809D01*
X233238095Y-124380952D01*
X233190476Y-124190476D01*
X233142857Y-124095238D01*
X233047619Y-124000000D01*
X232904761Y-123952380D01*
X232809523Y-123952380D01*
X232666666Y-124000000D01*
X232619047Y-124047619D01*
X231904761Y-123952380D02*
X231904761Y-124666666D01*
X231952380Y-124809523D01*
X232047619Y-124904761D01*
X232190476Y-124952380D01*
X232285714Y-124952380D01*
X230952380Y-124952380D02*
X231428571Y-124952380D01*
X231428571Y-123952380D01*
X230047619Y-124857142D02*
X230095238Y-124904761D01*
X230238095Y-124952380D01*
X230333333Y-124952380D01*
X230476190Y-124904761D01*
X230571428Y-124809523D01*
X230619047Y-124714285D01*
X230666666Y-124523809D01*
X230666666Y-124380952D01*
X230619047Y-124190476D01*
X230571428Y-124095238D01*
X230476190Y-124000000D01*
X230333333Y-123952380D01*
X230238095Y-123952380D01*
X230095238Y-124000000D01*
X230047619Y-124047619D01*
D11*
X166928571Y-119184761D02*
X166928571Y-117184761D01*
X166166666Y-117184761D01*
X165976190Y-117280000D01*
X165880952Y-117375238D01*
X165785714Y-117565714D01*
X165785714Y-117851428D01*
X165880952Y-118041904D01*
X165976190Y-118137142D01*
X166166666Y-118232380D01*
X166928571Y-118232380D01*
X164547619Y-117184761D02*
X164166666Y-117184761D01*
X163976190Y-117280000D01*
X163785714Y-117470476D01*
X163690476Y-117851428D01*
X163690476Y-118518095D01*
X163785714Y-118899047D01*
X163976190Y-119089523D01*
X164166666Y-119184761D01*
X164547619Y-119184761D01*
X164738095Y-119089523D01*
X164928571Y-118899047D01*
X165023809Y-118518095D01*
X165023809Y-117851428D01*
X164928571Y-117470476D01*
X164738095Y-117280000D01*
X164547619Y-117184761D01*
X161880952Y-119184761D02*
X162833333Y-119184761D01*
X162833333Y-117184761D01*
X160833333Y-118232380D02*
X160833333Y-119184761D01*
X161500000Y-117184761D02*
X160833333Y-118232380D01*
X160166666Y-117184761D01*
X159500000Y-119184761D02*
X159500000Y-117184761D01*
X158357142Y-119184761D02*
X159214285Y-118041904D01*
X158357142Y-117184761D02*
X159500000Y-118327619D01*
X157500000Y-119184761D02*
X157500000Y-117184761D01*
X156833333Y-117184761D02*
X155690476Y-117184761D01*
X156261904Y-119184761D02*
X156261904Y-117184761D01*
X153690476Y-117184761D02*
X152357142Y-119184761D01*
X152357142Y-117184761D02*
X153690476Y-119184761D01*
X150547619Y-119184761D02*
X151690476Y-119184761D01*
X151119047Y-119184761D02*
X151119047Y-117184761D01*
X151309523Y-117470476D01*
X151500000Y-117660952D01*
X151690476Y-117756190D01*
X148166666Y-119184761D02*
X148166666Y-117184761D01*
X147404761Y-117184761D01*
X147214285Y-117280000D01*
X147119047Y-117375238D01*
X147023809Y-117565714D01*
X147023809Y-117851428D01*
X147119047Y-118041904D01*
X147214285Y-118137142D01*
X147404761Y-118232380D01*
X148166666Y-118232380D01*
X145309523Y-119184761D02*
X145309523Y-118137142D01*
X145404761Y-117946666D01*
X145595238Y-117851428D01*
X145976190Y-117851428D01*
X146166666Y-117946666D01*
X145309523Y-119089523D02*
X145500000Y-119184761D01*
X145976190Y-119184761D01*
X146166666Y-119089523D01*
X146261904Y-118899047D01*
X146261904Y-118708571D01*
X146166666Y-118518095D01*
X145976190Y-118422857D01*
X145500000Y-118422857D01*
X145309523Y-118327619D01*
X144357142Y-117851428D02*
X144357142Y-119184761D01*
X144357142Y-118041904D02*
X144261904Y-117946666D01*
X144071428Y-117851428D01*
X143785714Y-117851428D01*
X143595238Y-117946666D01*
X143500000Y-118137142D01*
X143500000Y-119184761D01*
X141785714Y-119089523D02*
X141976190Y-119184761D01*
X142357142Y-119184761D01*
X142547619Y-119089523D01*
X142642857Y-118899047D01*
X142642857Y-118137142D01*
X142547619Y-117946666D01*
X142357142Y-117851428D01*
X141976190Y-117851428D01*
X141785714Y-117946666D01*
X141690476Y-118137142D01*
X141690476Y-118327619D01*
X142642857Y-118518095D01*
X140547619Y-119184761D02*
X140738095Y-119089523D01*
X140833333Y-118899047D01*
X140833333Y-117184761D01*
X138452380Y-117851428D02*
X137976190Y-119184761D01*
X137500000Y-117851428D01*
X136357142Y-117184761D02*
X136166666Y-117184761D01*
X135976190Y-117280000D01*
X135880952Y-117375238D01*
X135785714Y-117565714D01*
X135690476Y-117946666D01*
X135690476Y-118422857D01*
X135785714Y-118803809D01*
X135880952Y-118994285D01*
X135976190Y-119089523D01*
X136166666Y-119184761D01*
X136357142Y-119184761D01*
X136547619Y-119089523D01*
X136642857Y-118994285D01*
X136738095Y-118803809D01*
X136833333Y-118422857D01*
X136833333Y-117946666D01*
X136738095Y-117565714D01*
X136642857Y-117375238D01*
X136547619Y-117280000D01*
X136357142Y-117184761D01*
X134833333Y-118994285D02*
X134738095Y-119089523D01*
X134833333Y-119184761D01*
X134928571Y-119089523D01*
X134833333Y-118994285D01*
X134833333Y-119184761D01*
X133500000Y-117184761D02*
X133309523Y-117184761D01*
X133119047Y-117280000D01*
X133023809Y-117375238D01*
X132928571Y-117565714D01*
X132833333Y-117946666D01*
X132833333Y-118422857D01*
X132928571Y-118803809D01*
X133023809Y-118994285D01*
X133119047Y-119089523D01*
X133309523Y-119184761D01*
X133500000Y-119184761D01*
X133690476Y-119089523D01*
X133785714Y-118994285D01*
X133880952Y-118803809D01*
X133976190Y-118422857D01*
X133976190Y-117946666D01*
X133880952Y-117565714D01*
X133785714Y-117375238D01*
X133690476Y-117280000D01*
X133500000Y-117184761D01*
X131976190Y-118994285D02*
X131880952Y-119089523D01*
X131976190Y-119184761D01*
X132071428Y-119089523D01*
X131976190Y-118994285D01*
X131976190Y-119184761D01*
X129976190Y-119184761D02*
X131119047Y-119184761D01*
X130547619Y-119184761D02*
X130547619Y-117184761D01*
X130738095Y-117470476D01*
X130928571Y-117660952D01*
X131119047Y-117756190D01*
X161023809Y-120404761D02*
X161023809Y-121833333D01*
X161119047Y-122119047D01*
X161309523Y-122309523D01*
X161595238Y-122404761D01*
X161785714Y-122404761D01*
X159214285Y-122404761D02*
X159214285Y-121357142D01*
X159309523Y-121166666D01*
X159500000Y-121071428D01*
X159880952Y-121071428D01*
X160071428Y-121166666D01*
X159214285Y-122309523D02*
X159404761Y-122404761D01*
X159880952Y-122404761D01*
X160071428Y-122309523D01*
X160166666Y-122119047D01*
X160166666Y-121928571D01*
X160071428Y-121738095D01*
X159880952Y-121642857D01*
X159404761Y-121642857D01*
X159214285Y-121547619D01*
X158261904Y-121071428D02*
X158261904Y-122404761D01*
X158261904Y-121261904D02*
X158166666Y-121166666D01*
X157976190Y-121071428D01*
X157690476Y-121071428D01*
X157500000Y-121166666D01*
X157404761Y-121357142D01*
X157404761Y-122404761D01*
X154928571Y-122404761D02*
X154928571Y-120404761D01*
X153785714Y-122404761D02*
X154642857Y-121261904D01*
X153785714Y-120404761D02*
X154928571Y-121547619D01*
X152928571Y-121071428D02*
X152928571Y-122404761D01*
X152928571Y-121261904D02*
X152833333Y-121166666D01*
X152642857Y-121071428D01*
X152357142Y-121071428D01*
X152166666Y-121166666D01*
X152071428Y-121357142D01*
X152071428Y-122404761D01*
X151119047Y-122404761D02*
X151119047Y-121071428D01*
X151119047Y-120404761D02*
X151214285Y-120500000D01*
X151119047Y-120595238D01*
X151023809Y-120500000D01*
X151119047Y-120404761D01*
X151119047Y-120595238D01*
X150166666Y-121071428D02*
X150166666Y-123071428D01*
X150166666Y-121166666D02*
X149976190Y-121071428D01*
X149595238Y-121071428D01*
X149404761Y-121166666D01*
X149309523Y-121261904D01*
X149214285Y-121452380D01*
X149214285Y-122023809D01*
X149309523Y-122214285D01*
X149404761Y-122309523D01*
X149595238Y-122404761D01*
X149976190Y-122404761D01*
X150166666Y-122309523D01*
X148357142Y-121071428D02*
X148357142Y-123071428D01*
X148357142Y-121166666D02*
X148166666Y-121071428D01*
X147785714Y-121071428D01*
X147595238Y-121166666D01*
X147500000Y-121261904D01*
X147404761Y-121452380D01*
X147404761Y-122023809D01*
X147500000Y-122214285D01*
X147595238Y-122309523D01*
X147785714Y-122404761D01*
X148166666Y-122404761D01*
X148357142Y-122309523D01*
X145785714Y-122309523D02*
X145976190Y-122404761D01*
X146357142Y-122404761D01*
X146547619Y-122309523D01*
X146642857Y-122119047D01*
X146642857Y-121357142D01*
X146547619Y-121166666D01*
X146357142Y-121071428D01*
X145976190Y-121071428D01*
X145785714Y-121166666D01*
X145690476Y-121357142D01*
X145690476Y-121547619D01*
X146642857Y-121738095D01*
X144833333Y-122404761D02*
X144833333Y-121071428D01*
X144833333Y-121452380D02*
X144738095Y-121261904D01*
X144642857Y-121166666D01*
X144452380Y-121071428D01*
X144261904Y-121071428D01*
X142166666Y-120595238D02*
X142071428Y-120500000D01*
X141880952Y-120404761D01*
X141404761Y-120404761D01*
X141214285Y-120500000D01*
X141119047Y-120595238D01*
X141023809Y-120785714D01*
X141023809Y-120976190D01*
X141119047Y-121261904D01*
X142261904Y-122404761D01*
X141023809Y-122404761D01*
X139785714Y-120404761D02*
X139595238Y-120404761D01*
X139404761Y-120500000D01*
X139309523Y-120595238D01*
X139214285Y-120785714D01*
X139119047Y-121166666D01*
X139119047Y-121642857D01*
X139214285Y-122023809D01*
X139309523Y-122214285D01*
X139404761Y-122309523D01*
X139595238Y-122404761D01*
X139785714Y-122404761D01*
X139976190Y-122309523D01*
X140071428Y-122214285D01*
X140166666Y-122023809D01*
X140261904Y-121642857D01*
X140261904Y-121166666D01*
X140166666Y-120785714D01*
X140071428Y-120595238D01*
X139976190Y-120500000D01*
X139785714Y-120404761D01*
X138357142Y-120595238D02*
X138261904Y-120500000D01*
X138071428Y-120404761D01*
X137595238Y-120404761D01*
X137404761Y-120500000D01*
X137309523Y-120595238D01*
X137214285Y-120785714D01*
X137214285Y-120976190D01*
X137309523Y-121261904D01*
X138452380Y-122404761D01*
X137214285Y-122404761D01*
X136452380Y-120595238D02*
X136357142Y-120500000D01*
X136166666Y-120404761D01*
X135690476Y-120404761D01*
X135500000Y-120500000D01*
X135404761Y-120595238D01*
X135309523Y-120785714D01*
X135309523Y-120976190D01*
X135404761Y-121261904D01*
X136547619Y-122404761D01*
X135309523Y-122404761D01*
X161404761Y-124291428D02*
X161404761Y-125910476D01*
X161500000Y-126100952D01*
X161595238Y-126196190D01*
X161785714Y-126291428D01*
X162071428Y-126291428D01*
X162261904Y-126196190D01*
X161404761Y-125529523D02*
X161595238Y-125624761D01*
X161976190Y-125624761D01*
X162166666Y-125529523D01*
X162261904Y-125434285D01*
X162357142Y-125243809D01*
X162357142Y-124672380D01*
X162261904Y-124481904D01*
X162166666Y-124386666D01*
X161976190Y-124291428D01*
X161595238Y-124291428D01*
X161404761Y-124386666D01*
X160452380Y-125624761D02*
X160452380Y-124291428D01*
X160452380Y-123624761D02*
X160547619Y-123720000D01*
X160452380Y-123815238D01*
X160357142Y-123720000D01*
X160452380Y-123624761D01*
X160452380Y-123815238D01*
X159785714Y-124291428D02*
X159023809Y-124291428D01*
X159500000Y-123624761D02*
X159500000Y-125339047D01*
X159404761Y-125529523D01*
X159214285Y-125624761D01*
X159023809Y-125624761D01*
X158357142Y-125624761D02*
X158357142Y-123624761D01*
X157500000Y-125624761D02*
X157500000Y-124577142D01*
X157595238Y-124386666D01*
X157785714Y-124291428D01*
X158071428Y-124291428D01*
X158261904Y-124386666D01*
X158357142Y-124481904D01*
X155690476Y-124291428D02*
X155690476Y-125624761D01*
X156547619Y-124291428D02*
X156547619Y-125339047D01*
X156452380Y-125529523D01*
X156261904Y-125624761D01*
X155976190Y-125624761D01*
X155785714Y-125529523D01*
X155690476Y-125434285D01*
X154738095Y-125624761D02*
X154738095Y-123624761D01*
X154738095Y-124386666D02*
X154547619Y-124291428D01*
X154166666Y-124291428D01*
X153976190Y-124386666D01*
X153880952Y-124481904D01*
X153785714Y-124672380D01*
X153785714Y-125243809D01*
X153880952Y-125434285D01*
X153976190Y-125529523D01*
X154166666Y-125624761D01*
X154547619Y-125624761D01*
X154738095Y-125529523D01*
X152928571Y-125434285D02*
X152833333Y-125529523D01*
X152928571Y-125624761D01*
X153023809Y-125529523D01*
X152928571Y-125434285D01*
X152928571Y-125624761D01*
X151119047Y-125529523D02*
X151309523Y-125624761D01*
X151690476Y-125624761D01*
X151880952Y-125529523D01*
X151976190Y-125434285D01*
X152071428Y-125243809D01*
X152071428Y-124672380D01*
X151976190Y-124481904D01*
X151880952Y-124386666D01*
X151690476Y-124291428D01*
X151309523Y-124291428D01*
X151119047Y-124386666D01*
X149976190Y-125624761D02*
X150166666Y-125529523D01*
X150261904Y-125434285D01*
X150357142Y-125243809D01*
X150357142Y-124672380D01*
X150261904Y-124481904D01*
X150166666Y-124386666D01*
X149976190Y-124291428D01*
X149690476Y-124291428D01*
X149500000Y-124386666D01*
X149404761Y-124481904D01*
X149309523Y-124672380D01*
X149309523Y-125243809D01*
X149404761Y-125434285D01*
X149500000Y-125529523D01*
X149690476Y-125624761D01*
X149976190Y-125624761D01*
X148452380Y-125624761D02*
X148452380Y-124291428D01*
X148452380Y-124481904D02*
X148357142Y-124386666D01*
X148166666Y-124291428D01*
X147880952Y-124291428D01*
X147690476Y-124386666D01*
X147595238Y-124577142D01*
X147595238Y-125624761D01*
X147595238Y-124577142D02*
X147500000Y-124386666D01*
X147309523Y-124291428D01*
X147023809Y-124291428D01*
X146833333Y-124386666D01*
X146738095Y-124577142D01*
X146738095Y-125624761D01*
X144357142Y-123529523D02*
X146071428Y-126100952D01*
X143690476Y-124291428D02*
X143690476Y-126291428D01*
X143690476Y-124386666D02*
X143500000Y-124291428D01*
X143119047Y-124291428D01*
X142928571Y-124386666D01*
X142833333Y-124481904D01*
X142738095Y-124672380D01*
X142738095Y-125243809D01*
X142833333Y-125434285D01*
X142928571Y-125529523D01*
X143119047Y-125624761D01*
X143500000Y-125624761D01*
X143690476Y-125529523D01*
X141595238Y-125624761D02*
X141785714Y-125529523D01*
X141880952Y-125434285D01*
X141976190Y-125243809D01*
X141976190Y-124672380D01*
X141880952Y-124481904D01*
X141785714Y-124386666D01*
X141595238Y-124291428D01*
X141309523Y-124291428D01*
X141119047Y-124386666D01*
X141023809Y-124481904D01*
X140928571Y-124672380D01*
X140928571Y-125243809D01*
X141023809Y-125434285D01*
X141119047Y-125529523D01*
X141309523Y-125624761D01*
X141595238Y-125624761D01*
X139785714Y-125624761D02*
X139976190Y-125529523D01*
X140071428Y-125339047D01*
X140071428Y-123624761D01*
X139214285Y-124291428D02*
X138738095Y-125624761D01*
X138261904Y-124291428D02*
X138738095Y-125624761D01*
X138928571Y-126100952D01*
X139023809Y-126196190D01*
X139214285Y-126291428D01*
X137500000Y-125624761D02*
X137500000Y-123624761D01*
X137309523Y-124862857D02*
X136738095Y-125624761D01*
X136738095Y-124291428D02*
X137500000Y-125053333D01*
X135880952Y-125624761D02*
X135880952Y-124291428D01*
X135880952Y-123624761D02*
X135976190Y-123720000D01*
X135880952Y-123815238D01*
X135785714Y-123720000D01*
X135880952Y-123624761D01*
X135880952Y-123815238D01*
X135214285Y-124291428D02*
X134452380Y-124291428D01*
X134928571Y-123624761D02*
X134928571Y-125339047D01*
X134833333Y-125529523D01*
X134642857Y-125624761D01*
X134452380Y-125624761D01*
M02*
